/* XPM */
static char *_b993b4f714e45eedbc9989d179f98d6fnq9UIzslj02YZTo[] = {
/* columns rows colors chars-per-pixel */
"64 64 29 1 ",
"  c #0F81F3",
". c #0F87F5",
"X c #0F88F3",
"o c #1083F3",
"O c #1087F3",
"+ c #1083F5",
"@ c #1280F6",
"# c #1285F4",
"$ c #1089F4",
"% c #128BF7",
"& c #1488F5",
"* c #118CF4",
"= c #118FF6",
"- c #148FF7",
"; c #128AF8",
": c #138EF8",
"> c #148FF8",
", c #1393F4",
"< c #1492F6",
"1 c #1297F4",
"2 c #1595F6",
"3 c #1398F5",
"4 c #1499F6",
"5 c #149BF7",
"6 c #1391F8",
"7 c #1492F9",
"8 c #1797F8",
"9 c #1698F8",
"0 c #159CF8",
/* pixels */
",22222222111111144443111111222222282,,,,,6666::========;=%%;%%%#",
",22222222111111144443111111222222282,,,,,6666:::=======%=%%;%%%%",
"222222288444444444444441111222222222,,,,,6666:66,,====-=%%%;;%#%",
"222222288444444444444441111222222222,,,,,666666,,,=======%%;;%#%",
"222222299444444444444443311222222,,2,,,,,66666,,,========%%%%%%%",
"222221144444444444444444311999112,,2282,,,,,,,,,======-::%=%%%%%",
"222221144444444444444444311999112,22282,,,,,,,6,====--->==%%%%%%",
"222224444444444444444444434999112222282,,,,,,66====----%%%%%%%%%",
"222224444444444444444444444999112222222,,,,,,,6===-====%%%=%%%XX",
"222221144444444444443334444444112222222,,,,,,,66,=====-%%%%%%%XX",
"222221144444444444443334444444112222222,,,,,,,66,===---=%%%%%%%%",
"222224444444444444444444444444112222222,,,,,,,66,,-========%%%%%",
"222224444444444444444444444444112222288,,,,,,,66,=>====%==%%%%%%",
"222224444444444444444444444444112222288,,,,,,,66,,>====%==%%%%%%",
"11994334444444444444444444444444222288,,,,,,,666==->-===%=%%%%%%",
"11999444444444444444444444444444222288,,,,,,,666==---=====%%%%%%",
"111134444444444444444444444444112222222,,,,,,,,,,=-----%==%%%%%%",
"111134444444444444544444444444112222222,,,,,,,,,,=--=--%=%%%%%%%",
"222221144444444444444444444311112222222,,,,,,,==,,====-%=%%%%%%%",
"222221144444444444444444444311112222222,,,,,,,,=,,====-====%%%XX",
"222221144444440033444444444111112222288,,8,,,,6:,,=========%%XXX",
"222221144444444433444444444111112222288,,8,,,,66,,========%%%%XX",
"222221144444443333444444444111112222288,,8,,,,77::=====%%%%%%%%%",
",2222999944444444444444444499911,,8,8,8,,,,,,->>>>=====%%%%%%%%%",
",2222999944444444444444444499911,,,,,88,,,,,,<-->>=========%%%%%",
"22222111144444444444444111111111,,,,,,,,,,,,,<--=========%%%%%%%",
"22222111144444444444444111111111,,88,,,,,,,,,<---========%%%%%%%",
"22222112222999119999311222211111,,88,,,,,6,,,=----::==%%%%%%%###",
"222222222228891199993112222188888888,,,,,66==---==::%%%%%%%;;%%%",
"222222222222891199993112222,88888888,,,,,66:=---==::%%%%%%%%;%%#",
",,,,,2222222221111111112222,,,77,,,,,,,,,666=-========%%%%%%%%..",
",,,,,2222222221111111112222,,<<7,,,,,,,,,666=========%=%%%%%%%..",
",,22222222,,,,888888,,8888887778,,,,,6666,,::======%%%%%%%%#####",
",,8222,22188,,888888,,8888887778,,,,,6666,,,::====%%%%%%%%%#####",
",,,,,8878,8888,,8888,,,6,,,,,,,,,,,,,66,6,,=========%%%%%%%#####",
",,,,,<878<8888,,8888,,,,,,,,,,,,,,,,,66,:,6=========%%%%%%%#####",
",,<<,,8,,,,,,,,,,,,,,,,,,,,,,,,,66,,=-----===-====%%=%%%%%%#####",
",,,,,,8,,,,,,,,,,,,,,,,,,,,,,,,,66,,>>->----===%%%%%=%%##&######",
",,,,,,<,,,,,,,,,,,,,,,,,,,,,,,,,66,,>>>>--======%%%%=%%##&######",
",,,,,,,,,,,,,,,,,,,,,,,,,,,,,,,,6,,,>>>===-=====%%%%%%##########",
",,,,,,,,,,,,,,,,,,,,,,,,,,,,,,,,=,,=----==-=====%%%%%%##########",
"::,,=667677777666666666666666667--==---==%===%%%%%XX%%%#########",
"::==,67766666,6666666666666666==--==--===%%=%%%%%%%%%%%#########",
"==,,,,==6666,,=6666666666:,,,,==---======%%%%%%%%%X%XX##########",
"=====,,=,,,,,,=6666666666,,,=============%%%%%%%%%%%XX##########",
"=======-=======>>>>>>>>>>===--===========%%%%%%%%%##############",
"=========--->>-------->>---==============%%%%%%%%%############++",
"=========-->>>>>------>----=====-========%%%%%%%%%#############+",
"==============----=====================%%%%XXX%%XX############++",
"==============----=========%%%=======%=%%%%X%%%%XX##########..#+",
"==%%%%============---==>:===%%==%%%%%%%%%.%%%##############++###",
"==%%%%%%===============%%===%%==%%%%%%%%%%%%%##############+++++",
"%%%=%%%%%==============%=%%%%%%%%%%%%%%%%%%%%##############+++++",
"%%%=%%=%%%=============%=%%%%%%%%%%%%%%%%%%..##############+++++",
"%%======%%%======%====%%=%%%%%%%%%%%#%%%%%%..#######o##+++++++++",
"%%%%%%%%%%%%%%%%%%%%%%%%%%%XXX%%%%XX################o##+++++++++",
"%%XX%%%%%%%%%%%%%%%%%%%%%%%%%%%%%%%%###################+++++++++",
"%%%%%%%%%%XX%%%%%%%%%%%%%%%%%%%%%%XX#################o#++++ oo o",
"XX%%%%%%%%X%%%%=%%%%%%%%%%%%%%%%%%XX################ooo++++ oo o",
"###############%#######%####################OO##oo++++++++++@@++",
"##############%%######%%####################o ##oo++++++++++++++",
"######################%%####################oo##oo+++++++  +++++",
"#######################%####################    oo+++++++  +++++",
"#######################%####################    o +++++++  +++++"
};
