/* XPM */
static char *download1739131198[] = {
/* columns rows colors chars-per-pixel */
"64 64 252 2 ",
"   c #121E14",
".  c #2D1C00",
"X  c #251700",
"o  c #381B00",
"O  c #39371A",
"+  c #3A2A00",
"@  c #313A33",
"#  c #172116",
"$  c #462B00",
"%  c #4B3402",
"&  c #553903",
"*  c #4B3615",
"=  c #563609",
"-  c #603F00",
";  c #384937",
":  c #5D4402",
">  c #594505",
",  c #4B4518",
"<  c #514C10",
"1  c #634902",
"2  c #634600",
"3  c #785900",
"4  c #764D00",
"5  c #7A6305",
"6  c #4C4726",
"7  c #5A5A28",
"8  c #74782F",
"9  c #675D20",
"0  c #1D3A49",
"q  c #334C4D",
"w  c #2D5663",
"e  c #38667D",
"r  c #556854",
"t  c #627446",
"y  c #55746D",
"u  c #836700",
"i  c #9A7602",
"p  c #8D6F00",
"a  c #817328",
"s  c #7F832F",
"d  c #699075",
"f  c #7DA47A",
"g  c #5F9368",
"h  c #9D8209",
"j  c #AC8500",
"k  c #BB8D01",
"l  c #B78B00",
"z  c #BB9400",
"x  c #BB9B01",
"c  c #B99404",
"v  c #B39E14",
"b  c #99892B",
"n  c #A9982E",
"m  c #B7A921",
"M  c #C39300",
"N  c #C49B03",
"B  c #CC9C02",
"V  c #C79A0A",
"C  c #C49E15",
"Z  c #C69102",
"A  c #C8A208",
"S  c #D7A805",
"D  c #DDB207",
"F  c #CCAB16",
"G  c #D8AB15",
"H  c #DBB61A",
"J  c #E1AC0A",
"K  c #E4B40A",
"L  c #E4BB0E",
"P  c #ECBB0D",
"I  c #E6B508",
"U  c #E3B414",
"Y  c #E4BC15",
"T  c #EBBC14",
"R  c #E5BB1D",
"E  c #E7B818",
"W  c #F1BD19",
"Q  c #C09E3C",
"!  c #C8AA25",
"~  c #DAB927",
"^  c #D7BB38",
"/  c #CAB12F",
"(  c #E5BC24",
")  c #E7BD29",
"_  c #F3BD25",
"`  c #E5BE36",
"'  c #EDC214",
"]  c #EBC518",
"[  c #F3C31B",
"{  c #F4CA1B",
"}  c #F9CC1D",
"|  c #F7C318",
" . c #FCD31D",
".. c #F7D61C",
"X. c #EEC10E",
"o. c #D9C438",
"O. c #DAC62C",
"+. c #EAC727",
"@. c #F3C423",
"#. c #F4CC22",
"$. c #FBCD23",
"%. c #F3C62B",
"&. c #EDD32B",
"*. c #FCD324",
"=. c #FDD52B",
"-. c #FCDA2B",
";. c #F4D527",
":. c #EAC636",
">. c #F4CC35",
",. c #F6CB37",
"<. c #F4D233",
"1. c #FCD433",
"2. c #FEDB34",
"3. c #FCD53A",
"4. c #FEDD3B",
"5. c #F4D939",
"6. c #EDD73A",
"7. c #FDE134",
"8. c #FDE23C",
"9. c #FFE02D",
"0. c #DBC318",
"q. c #B5B750",
"w. c #849F6E",
"e. c #96B172",
"r. c #AEBD79",
"t. c #B2BA6A",
"y. c #C9BB46",
"u. c #D7BD47",
"i. c #CBB752",
"p. c #E9BE4D",
"a. c #BDC268",
"s. c #B1C579",
"d. c #D6C144",
"f. c #DCD758",
"g. c #CCC34E",
"h. c #E9C54B",
"j. c #EBD748",
"k. c #FCDD43",
"l. c #FBDB4B",
"z. c #F6D746",
"x. c #E9D655",
"c. c #F9DA54",
"v. c #ECCD4B",
"b. c #FDE443",
"n. c #FEEA46",
"m. c #FDE44C",
"M. c #FDEA4B",
"N. c #F5E74C",
"B. c #FDE453",
"V. c #FEEB53",
"C. c #FEEB5B",
"Z. c #F8E559",
"A. c #FFF259",
"S. c #D8D668",
"D. c #CFD26E",
"F. c #ECD869",
"G. c #FDEC63",
"H. c #FBE869",
"J. c #FFF263",
"K. c #FDF26C",
"L. c #F9F66B",
"P. c #FEED73",
"I. c #F4E178",
"U. c #FDF473",
"Y. c #FEF57B",
"T. c #FCF876",
"R. c #E8E867",
"E. c #347DB1",
"W. c #427EA9",
"Q. c #4D778F",
"!. c #147EDF",
"~. c #398C9D",
"^. c #398BA8",
"/. c #3A94A9",
"(. c #3588B8",
"). c #2F94BC",
"_. c #3695B6",
"`. c #2C84B3",
"'. c #498989",
"]. c #448B98",
"[. c #538C93",
"{. c #44929C",
"}. c #5A8E89",
"|. c #69948B",
" X c #7EAD89",
".X c #4488A9",
"XX c #5190AF",
"oX c #6694B8",
"OX c #1A89DC",
"+X c #1C97D9",
"@X c #188CCE",
"#X c #2A88C7",
"$X c #358BC5",
"%X c #2895C9",
"&X c #3694CA",
"*X c #2588D7",
"=X c #2597D7",
"-X c #318BD2",
";X c #0D83EE",
":X c #0D8AED",
">X c #0985E9",
",X c #1385EE",
"<X c #128AEC",
"1X c #198AE4",
"2X c #0C99EE",
"3X c #1494ED",
"4X c #149AEB",
"5X c #1997E7",
"6X c #0E85F4",
"7X c #0D8BF3",
"8X c #0E85FA",
"9X c #0D8BFA",
"0X c #078AF6",
"qX c #1284F4",
"wX c #128CF5",
"eX c #198DF5",
"rX c #1385FA",
"tX c #1985FA",
"yX c #138CF9",
"uX c #1B8BFA",
"iX c #1A80F5",
"pX c #0E94F5",
"aX c #0E9AF3",
"sX c #0E93FB",
"dX c #0E9AF9",
"fX c #1394F5",
"gX c #1A93F4",
"hX c #149AF6",
"jX c #1A9BF5",
"kX c #1493FA",
"lX c #1994FC",
"zX c #139AFA",
"xX c #1A9CFB",
"cX c #238BE3",
"vX c #2087E3",
"bX c #2498E8",
"nX c #18A1EF",
"mX c #7CBCE8",
"MX c #8CB08E",
"NX c #A9BD88",
"BX c #98C193",
"VX c #AECC90",
"CX c #ADD0AA",
"ZX c #B5E6B3",
"AX c #9FCCAB",
"SX c #C8D68E",
"DX c #D9EB87",
"FX c #D8EE93",
"GX c #FFFB88",
"HX c #FFFD97",
"JX c #EFF595",
"KX c #E6F4A9",
/* pixels */
"fXfXfXfXfXgXfXhXfXfX3XhXfXhXfXfXlXlX4X4XaXzXlXgXfXhXfXhXlXkXpX2X3XpXpXpXgXeXgXfX2X2XpXyXyXyX9XkX7XpXwXwXfXwXwXyXwXwXyXwX8XqX9X8X",
"fXfXfXfXfXfXhXfXfXhXhXfXaXfXfXhXhXjX2X2XdXzXfXfXzXfXfXkXlXkXfXhXfX4XfXkXkXeXwXwX3XpX9XkXkXyXkXwXfXwX7XfXwXwXyXwXwXkXyXwXwX6X8XwX",
"fXfXgXfXfXfXfXhXhXhXfXhXhXfXhX2XhXfXhXhXzXkXdXdXdXzX3X3XgXlXkXfX3XfXgXkXkXsXlXkXeXkXkXkXyXyXkXpXfXwXfX7XkXwXyXwXwXkXwXrXqXwXyX6X",
"fXlXhXfXhXgXfXfXgXhXhXhXhXhXhXhXjXfXhXzXzXdXdXdXsXkX4X5XgXlXkXkXfX3XlXkXsXsXsXkXfXfXyXyXkXkXwXfXwXfXwXkXwXwXfXyXyXwXyXyX9X8XyX6X",
"fXfXfXgXzXfXfXjXjXhXhXhXhXhXhXzXzXxXzXjXgXfXdXzXkXlX3X4XhXfXhXkXfXgXfXpXsXsXkXpX2X2XpXdX7XfX:X3XfX7XyXfXwXwXfXyXyXwXyXyXyXyX6XwX",
"fXfXfXfXfXhXfXhXhXgXhXhXhXfXfXhXzXxXfX4XjXhXhXhXlXlX3X4XhXhXfXkXgXfX4XaXsXkXkXfXfXpXpXpXfXfX3X3XfXkXfXyXfXyXyXwXwXwXyXwXyXqXyX6X",
"gXfXzXlXfXhXfXfXhXhXzXhXhXzXzXhXaXaXnX5X2XhXzXlXzXhXdXhXdXzXhXkX3X2XfXfXfXlXeXkXfXfXkXhXwXgXgXwXwXkX7XfXwXyXyXkXyXwXyXrXyX6X6X9X",
"fXgXhXhXzXgXhXjXhXhXhXhXhXhXhXhXaX2X5XnX2XaXhXhXhXhXhXdXdXzXlXkXpXaXfXfXuXgXeXgXkXkXyXyXkXeXkXyXfXwXkX7XwXfXyXwXwXyXyXyXyXyXwXqX",
"hXzXhXfXfXjXhXlXzXlXhXhXlXhXhXhXdXxXhXfXhXaXhXhXjXhXdXaXaXaXfXlXlXfXgXgXwXeXgX3X3XpX9XkXfXwXyXyXyX7X7XkXkXwXkXwXwXkXwXwXyX9XwXqX",
"fXgXfXfXfXfXhXfXhXhXzXhXhXhXzXxXxXfXzXxXhXhXaXjX=X%X).)._._.^._.$X&X).&X&X%X&X+X4XpXxX9X3XfXkXyXkXfXyX7XwXfXyXyXwX7XyXwXwX6XqX9X",
"fXhXfXfXhXfXfXhXzXzXhXjXhXhXhXhXzXzXzXxXjXfXlX5X~.g VXFXFXFXKXJXKXSXMXd f d './.@XfX0XkXjX:XpXkXyXpXwXfXeXyXwXwXwXyXwXwXwXqXwX6X",
"hXfXzXfXfXzXhXhXjXhXhXzXxXhXhXhXzXxXzXxXbX=X&X{.ZXDXR.M.M.n.M.N.Z.H.HXHXa.e.s. X{._.bXgX1X<XzX9XkXyXfX7XyXkXkXyXyXwXyXwXwX9X6XyX",
"hXhXkXfXhXhXhXhXhXhXzXhXdXdXhXxXdXhXjXbX=X~.BXDXR.Z.N.8.n.8.N.N.N.Z.Z.P.HXD.y.g.q.e.].#XbXeXfXpXfXkX7XyXyXwXyXwX9XkXyXeXqXqX7XqX",
"fXfXgXfXlXzXhXhXhXxXzXhXzXnXhXdXdXnXbX&X~.ZXR.5.8.n.b.N.b.b.N.A.V.M.M.B.H.HXv.~ ) y.VX'.-X1X:XfXkX7X9XyXkXwXkXwXwXwXyXwXwX7XwX7X",
"fXkXhXhXhXhXhXhXhXhXhXhXdXzXzXnXaX4X&X{.SXR.6.8.8.k.x.H.B.m.B.z.N.b.n.M.c.H.HXF.+.R ^ a.[.-X3XpXpXwXfXyXkXyXwXwXwXwXwXwXwXqXqX7X",
"fXkXhXhXhXjXhXhXhXxXhXxXhXnXdXdXdX+X{.BXR.j.4.8.z.! : & u i u h N.b.8.n.B.G.I.HX` @.T ^ NX[.#X4XfXkX9XkXyXfXwXwXwXwXwXwXqX9X7XwX",
"fXhXhXdXfXfXhX4XhX2XjXjXgXjXdXdXaX%Xf S.N.3.z.^ 3 5 R.T.U.U.U.Y.x.p m.M.M.M.B.H.HXp.@.( ^ s.~.%X3XyXkX9X7XfXfXwXeXwXuXtX9X0XwXqX",
"fXfXdXdXfXhXaXaXhXhXxXjX3X4XdXhXnX~.D.j.3.k.h 1 F.GXY.R.T.P.P.U.GXY./ z.m.b.M.Z.GXGX:.[ +.d.MX~.@X7X9XkXkX7XfXqXwXrXtXyX9X9X7X<X",
"fXfXhXhXfXhXhXaXaXzXhXhXjXhXdXnX{.AXR.7.6.i > H.P.P.Y.GXH.P.U.U.P.K.K.j.j.N.V.Z.I.GXj.:.) :.a.d $XgXeXyXwX:XkXfXwXeXrXeXyX7X7X<X",
"fXfXhXfXhXhXhXhXxXhXfXhXjXhXhX%X}.SX6.&.! 2 H.K.G.G.L.m / m v f.L.U.T.L.j.Z.l.m.Z.G.GXv.:.` ^ VX~.cXeXuXlXqX7XyXfXwXwXrXyX7XqX:X",
"gX3X3XfX3XfXlXhXzXzXxXxXaXnXnX_.e.x.,.3.u ^ c.B.V.V.H.& : x.j.O.K.L.H.P.T.m N.b.N.M.Y.x.:.%.%.i.|.#XcXuXeXeX7XfX7X7XyXyXyXrX9XqX",
"3XfXhXhXgXgXhXzXzXdXdXhXdXnXbX~.S.<.,.i - l.z.b.b.k.C.! v l.b.6.J.L.T.L.L.K.j.5.7.N.Y.H.,.[ _ u.AX^.*XuX,XeX7XsXpXfX9XwXrXrXwXqX",
"fX3XhX3XfXhXlXlXxXdXxXaXdXnX%X[.S.;.,.i 1.2.-.4.3.m.C.F x b.8.6.J.H.U.L.U.K.o.V.8.k.Z.Y.>.@.R ^ r.[.!.uXeXkXyX9X7XpX7XwXwXqX<X:X",
"hXfXfXhXgXlXlXzXzXdXnXaXdX+XXXAXf.;.c 4 #.*.-.*.2.4.V.F x 8.8.&.Z.K.G.H.K.K.K.:.b.m.c.U.~ +.( o.q. X-XiXyXyX9XyX7X7XwXwXeXwX<X7X",
"fXfXhXaXfXlXxXlXlXhXhX4XnX=X].ZXx.1.j ( }  . .*.-.2.V.A x 7.8.<.V.Z.G.G.C.K.C.:.k.b.k.B.l.~ ~ ~ m e.`.3XwXyXyXyXkX9XwXeXtXqX6X9X",
"fXdXdXfXhXzXlXhXhXzXhX4X4X%X}.SXx.%.i >.$. . . .*.2.M.A A 7.8.&.M.V.C.A.C.A.J.Z.b.8.2.b.C.^ / F F q.^.<X7XfXyXyXkX7XwXwXeXrX9X7X",
"dXfXpXhXfXfXkXfXfXhX3XjX4X%Xf D.v.E i 1.*.}  .....=.m.A x 8.8.&.M.B.B.V.V.V.A.V.&.8.7.4.K.! A A N n {.5XfX9XyXrXyXwXqXeXwXwX:X:X",
"kXdXdXpXfXfXfXfXfXhX4XhX4X_.e.x.1.S Z $.-.*.*.*.;.=.l.F x 8.7.&.b.b.b.M.V.V.n.n.0.;.8.4.G.c c N c n XX*X3X7XrXwXyXwXwX<XwX7XqX7X",
"fXkXkXkXfXfXfXfXfXhXfXxXhX/.s.z.1.I T =.=.*.*.=.-.-.8.A x 7.8.&.8.8.8.b.V.V.M.n.0.7.5.z.B.V c l l b |.#X1XsXyXtXwXwXwXwXqXyX9X9X",
"fXfXhXfXfXfXgXgXfXfXkXzXfX_.D.1.=.} } *.*.*.*.=.=.2.7.A x 7.7.+.7.7.8.8.M.m.M.n.5.8.b.4.k.C c j j b |.`.1XpXeXwXqXwXyXwX7X7X8XrX",
"eXeXkXfXfXfX3X3XzXdXkXkXgX/.D.*.#.9. . .*.*.*.=.*.=.1.x x 7.7.#.8.8.8.b.b.8.8.b.k.5.3.1.,.k i i i a y .XcX7XwXqX<XeXqX7X7X7XyX8X",
"fXfXfXwXfXfXgXgXfXsXsXkXhX/.S.} ;.9.;.] $.$.| *.*.*.=.A x 7.7.#.8.2.4.k.8.8.8.8.b.4.2.1.,.j u u 3 9 r W.cX9XeXwX<XwX9X9X9X9XqXrX",
"fXfX3XfXfXfXkXeXdXdXsXkXpX^.S.{ &.n.;.T W | } {  .*.$.M x 5.2.{ 7.7.8.4.8.8.8.8.8.2.2.3.%.p 2 1 1 * q .XcX6XkXqXqXqXqX7X9X9X6XqX",
"fXpXfXpXfXfXkXfXdXsXsXkXfX^.D.] +.M.>.E W P X.' { #.%.z z 7.2.&.7.7.2.4.4.4.b.4.8.2.8.3./ 3 % $ % O 0 $XvXwXwXlXwXwXwXqX9X9XtXqX",
"fXfXpXfXdXfXhXkXkXpXsXkXfX^.a.&.+.A.,.P W I X.' W @.%.k c 2.2.] 2.2.4.4.4.8.8.b.1.4.3.l.C 2 & % $ * w E.vXqXyX8XyXrXqX:X7X9XqXiX",
"gXwXkXfXfXfXgXgXfXfXfXfXfX).e.o.O.L.,.U P I I P T @.%.k c 2.2.] ;.=.-.2.2.7.5.8.;.2.3.c.a & $ $ % # Q.E.1XkXyXyXrXyXqX:X7X6XqXrX",
"wXwXfXkXfXfXgXfXfXfXfXgX3X).w.g.o.A.m.G U J I I U T %.k c =.-.X.#.{  .*.*.-.7.7.;.2.2.l.5 . . . . # oX#X1X6X6X9XeXwXqX<X;X6XqXrX",
"eXgXeXfXfXfX<XfXkXwXfX3X:X%Xd a.d.k.G.G G S K D I U _ k z -.-.L [ { {  .*.*.-.-.;.-.-.l.3 . X X X # mX*X1X6XyXyXrXwXqX:X7X6X6XiX",
"eXeXkX7XpXfXfXwXfXwXgX3X3X%X}.NXu.+.K.o.F S J S S D _ Z z -.=.K ' ] | { } $.;.;.9.-.2.3.3 + X X X   #X1XqXlX;X6XqXwXqXqX6X7XqXiX",
"eXwXfXsX7XfXgXfXfX9XgXfXpX*X^.AXu.( Y.x.V S S S S S _ Z M =.=.K T T [ W W | #.} *.-.=.! > & = * O q #X,XqXrX6X7X,XqXqXwX6XqXqXqX",
"kXeXwXsXfX3XpXfXyXlXyXfXdXOX&XMX^ Y C.P.F B B A B S _ k k =.1.K L Y T ' W } @.$.$.=.z.4 & & $ * @ Q.*XyX6X6X7XwXeX,XqXwX9X6XqX,X",
"wXkXpXsXpXwXfXyXsXkXsXfXdX3X*X[.y.Y ^ T.h.A N A B B W l z 1.3.D L L U P | T | $.$.<.h.= = = = = @ XXcX6XyXwX6XqXqXqXqXqXqXqX,XqX",
"fX7XpXpXfXwX7XsX9XkXkX7XsXfX1X~.a.~ O.B.P.! C V B B ,.c x <.<.U K J P P X.L #.{ $.,.u.$ = * = * 0 E.1X0XwX6XqXqXtXtXqXqX<XqXqXtX",
"7XfXpXwXwXkX7XfXsXyXkXyX9XpXgX$Xw.i.~ H U.c.C Z B B B.C.k.N.M.U S I I I L ] { { @.` $ & < = = 6 oX-X,X9X>XyXwXqXrXqXqX:X7X;X6XiX",
"pX7X7XfXfXuXwXwX7XpXkXkX7XfXgX*X'.s.^ ] ` T.` C M Z V F :.+.b.H G S J I D ] } +.:.u.o > > > , q E.!.uXuX0XrX;XtXrXrXqXqX;X6XqXqX",
"7X7XpXfXeXeXwXfXfX7X7XkXfXwXwX1X(.|.q.~ ^ v.J.:.V V x x V N A N V S J I { ] T %.` $ 2 > : , 6 XX!.bXqXrX9X9XqX;XrX8XqX6X6X:XqXqX",
"kX9XfXqXeXeXeX7XfXfXfXwXwXeXkXeXcX.Xt.o.~ ( >.L.v.M z B Z B B B B U K X...' { ` Q o 2 = & 6 w (.1XyX!.yX9X;XeX,X8X8XqX6X8X6X,X,X",
"yXpXwXwXtXuXwXyX7XfXfXwXwXfXkXyXlX#Xd t.~ H ] ( A.C.H B B B N N S =.P X.X.T %.p.o 2 - 1 < ; .XcX;X9XrXrX8XqX,X,X6X8X8X6X8X8XrX!.",
"9XfXwXwXwXwXwXwXwXfXfXwXwXfXwXwXfX1X(.|.i.+.I P Y :.C.J.B.b.M.8.[ X.P X._ _ p.o - - 1 * q .X*X,XqXqXwXqXqX6XqXqXqX9XqX8XqX6XqXqX",
"wXwXwXwXwXwXfXwXwXwXwXwXeXyXyXfXwXeX*X.Xw.y.H P T H ) H E E Y ] Y T X.T ) h.$ $ & > 6 q oXE.1XyXqXqXqXqXqXqXqXqXqXqXqXrXrXqXqXqX",
"wXwXfXwXwXwXwXwXwXwXwXfXwXfXwXyXyXyX1X*X~.g q.] Y Y L U W W U Y T W L ( u.$ $ 2 1 6 w XX!.1XeX,X<XwX<XqXqXqXqXqXqXqXqX6X8X8X!.8X",
"wXwXwX7XwXfXwXwXfXwXwXwXwXwXwXyX9XyXpXOXOX^.g q.g.~ R [ G E @.~ ( R ) ! . * 9 7 r y E.vXtX!.rXrXqXqXqXqXqX6XqXqX6XqX6XqX!.!.rX8X",
"wX7X9XwXwXwXwXwXwXwXwXfXwXfX7XwX7XfX:X3XOX@X$X].g t.y.~ ( ( ~ ~ ) ^ + + 8 t y Q.^.#X1X<XqXyXrXyXeXqXqXqXqX7X,X6X8X8X8X8X8X8X8XrX",
"qXfXfXwXfXwXfXwXfXwXwXwXwXwXfX7XpX7XyX9X<XgX:XOXE.}.t 8 8 b s < < 7 d |.y }.[.E.*X;X:X7X;X9X9X6XqX6XqXqXqXqX6XqX8X8X!.!.rX!.8X!.",
"wXwXwXwXqXfXwXyX9XwX7XyX7XyXwXwXyXrXtXuX,X,XlXwX*X#X`.(._.`._.).`.#XE.-X-X!.@X*X,X,XqXeX>XwXwX6X,XqXqX6X6XqX,XqX!.8X8X8X!.8X!.8X",
"7X7X7XwX7XwXwXwXwXwXwXyXwXwX7XyXyXyXuX!.uXuX9X7XrXrXeX>X>X0X>X:X6XyX8X!.rXiXtX;XwX6XtXqXqXqX;XwX6XqXqXqXqX6X6X6X8X8X!.8X8X!.8X!.",
"qX7X7XwXwXqXwXwXwXwXwXwXwXwXwXpXpXpXtXeXqX3XwX9X9X9X9X9X7X<X<XqXeX6X9X9X7XqXtXtXrX8XqXqXiXiXrX8X8X6X8X8X8X8X!.!.!.8X8X!.!.!.0X!.",
"7XwXqX7X9XwXwXwXwXwXwXwXqXwXwX7X:X7X,XqX7X:X7XwX9X9X8X9XqXqXeXrXwXqXqX9X7X6XqXqX8X6X6XtXiXiXrX0X6X6X6X8X8X!.0X0X8X!.8X!.0X!.0X!.",
"qXwXwXqXqXqXwXqX6XqXwXwXqXwXwXwX9X;X<X<XwXrX7X:X9XyXqXqXwXeXrXrX6X7XqX<XqXqX,X<X6X7X8X8XqX,X6X>X6XqX8X!.!.8X8X!.!.8X8X8X0X!.!.!.",
"wXqXqX<XqXqX6XwXqXqXqXqXwX6XeXqXeXqX:X<XrXtXqX7XyXrXtXiX,X,XrXrX6XwX<XqX,X,X<X:X6X0X8X!.qX;X>X0X;X6X8X8X!.8X!.!.8X!.!.!.!.!.!.0X",
"wXqXqXqXqXqXyXqXwXqXqXwXqXeXqXwX9XqXqXqXrXrXeXwXqXqXqXqXqX,XtXqXwXqXqXqXeX,X,X,XrX8XrX8X6X6XrXrX!.!.8X8X!.!.0X0X0X!.!.!.!.!.0X!.",
"tXqXwXqXqXqXqXqXqXqXrXqXqXrXqXrXrXqX<XqXrXrXqXqXqXqXwXqX<XqXqXtXtXqXqXqX,X,X<X;XrX!.!.8X6X8XrX!.rX8X8X!.0X!.!.!.!.!.0X!.!.!.!.!.",
"wXqXwXqXqXeXwXqXqXqXqXqXqXqXqXyXrXrXqXqX9XwXqXqXqXqXwX7X9X7XrXtXqXrXiX6X;X7X6X8XrX!.qX6X;X;XrX!.!.8X8X!.0X!.!.!.!.0X!.0X!.!.!.!.",
"qXqXeXqXqXrXqXqXqXyXqXyXqXqXqXqXrXrXqX,XqX7XqXeXiXtX6X9X0XyX!.!.rXqXqX6X7X0X9X8XrX!.qX,X,X,X!.rXrX8X8X!.!.!.0X0X!.!.!.0X!.!.!.0X"
};
