/* XPM */
static char *download__1_1739131230[] = {
/* columns rows colors chars-per-pixel */
"64 64 254 2 ",
"   c #1D0804",
".  c #260800",
"X  c #35140E",
"o  c #3C3314",
"O  c #481805",
"+  c #4A1A14",
"@  c #561B0E",
"#  c #4F2C10",
"$  c #61310F",
"%  c #5E3426",
"&  c #594808",
"*  c #5A520B",
"=  c #594817",
"-  c #595314",
";  c #4D4C0C",
":  c #634D08",
">  c #68560A",
",  c #765C07",
"<  c #624D15",
"1  c #695516",
"2  c #755A16",
"3  c #73470E",
"4  c #7D6307",
"5  c #796516",
"6  c #6F640A",
"7  c #746223",
"8  c #694827",
"9  c #2B3F60",
"0  c #394E6B",
"q  c #3A7175",
"w  c #59764E",
"e  c #5C7555",
"r  c #5D7954",
"t  c #55735B",
"y  c #5A755B",
"u  c #587457",
"i  c #4D6F59",
"p  c #64774B",
"a  c #637B56",
"s  c #786044",
"d  c #577663",
"f  c #4C716F",
"g  c #46576B",
"h  c #856709",
"j  c #8C7505",
"k  c #937404",
"l  c #92740B",
"z  c #9B7B0B",
"x  c #937A0A",
"c  c #846B1A",
"v  c #876816",
"b  c #966E16",
"n  c #8C7518",
"m  c #947313",
"M  c #997514",
"N  c #9D7B15",
"B  c #93741A",
"V  c #947B1C",
"C  c #9C7C1C",
"Z  c #997718",
"A  c #926A0A",
"S  c #A17D1C",
"D  c #A37E15",
"F  c #A37F0D",
"G  c #866C24",
"H  c #887525",
"J  c #977C24",
"K  c #8B7534",
"L  c #A47D21",
"P  c #AA7F20",
"I  c #825F0D",
"U  c #996950",
"Y  c #AE7D6C",
"T  c #79874F",
"R  c #57877A",
"E  c #678862",
"W  c #608B70",
"Q  c #9C8207",
"!  c #9D811E",
"~  c #9C8316",
"^  c #A6880B",
"/  c #B89A0C",
"(  c #A48215",
")  c #AA8A13",
"_  c #A4831B",
"`  c #A9851C",
"'  c #AB8B1C",
"]  c #A68717",
"[  c #B28D19",
"{  c #AC9317",
"}  c #B39415",
"|  c #B3931C",
" . c #BB9B1C",
".. c #B99917",
"X. c #AB930B",
"o. c #BBA11C",
"O. c #BFA40B",
"+. c #9A8427",
"@. c #8F8D39",
"#. c #A48323",
"$. c #A58A24",
"%. c #AB8B23",
"&. c #AD8C29",
"*. c #A88627",
"=. c #B28E24",
"-. c #B18C2B",
";. c #AC9326",
":. c #B49224",
">. c #BB9525",
",. c #B59A22",
"<. c #BB9A24",
"1. c #BD9B2A",
"2. c #B5942A",
"3. c #A88932",
"4. c #AC9835",
"5. c #B89834",
"6. c #B18830",
"7. c #BDA227",
"8. c #BEA936",
"9. c #C39C1C",
"0. c #C3A31B",
"q. c #CCAB1C",
"w. c #C9A919",
"e. c #D1AA1B",
"r. c #CEB11B",
"t. c #D4B31D",
"y. c #DBBB1D",
"u. c #D6B81C",
"i. c #C6A40D",
"p. c #C29C22",
"a. c #C39D2B",
"s. c #C49B34",
"d. c #C4A324",
"f. c #CCA523",
"g. c #C5A925",
"h. c #CCAC23",
"j. c #C5A42A",
"k. c #CBAC2A",
"l. c #C7A62B",
"z. c #D2AC23",
"x. c #D4AA29",
"c. c #CDB123",
"v. c #CCB42C",
"b. c #D4B324",
"n. c #DBB422",
"m. c #DBBB25",
"M. c #D4B42C",
"N. c #DCBC2B",
"B. c #D6B828",
"V. c #C7A836",
"C. c #CDB23C",
"Z. c #CCB334",
"A. c #D3B433",
"S. c #DBBC34",
"D. c #D6BB3D",
"F. c #DABC3C",
"G. c #D5B738",
"H. c #D5AF32",
"J. c #E2BD28",
"K. c #E2BD37",
"L. c #DEC41E",
"P. c #E6CD1F",
"I. c #DBC329",
"U. c #DCC338",
"Y. c #E4C927",
"T. c #E8D828",
"R. c #F3D82A",
"E. c #E4C737",
"W. c #EAD636",
"Q. c #F4DB39",
"!. c #FFEC35",
"~. c #FEED3B",
"^. c #F9E337",
"/. c #FFFA36",
"(. c #FFF33B",
"). c #FFF536",
"_. c #F8E72D",
"`. c #8A9557",
"'. c #979955",
"]. c #8B8951",
"[. c #A8964A",
"{. c #9BA451",
"}. c #ABA646",
"|. c #B5A84D",
" X c #B2A654",
".X c #B5AB52",
"XX c #B7A956",
"oX c #BDB254",
"OX c #B0AE51",
"+X c #A2A268",
"@X c #D4AE42",
"#X c #C8B749",
"$X c #D9BA43",
"%X c #C2B353",
"&X c #C7B956",
"*X c #C1AE52",
"=X c #CCB36B",
"-X c #D7A75F",
";X c #CDC259",
":X c #DAC34C",
">X c #E4CA44",
",X c #EAD344",
"<X c #F0D64D",
"1X c #FCE846",
"2X c #FFF845",
"3X c #FFEB51",
"4X c #D2CA6E",
"5X c #F4CB6E",
"6X c #FFEA66",
"7X c #2B7FBD",
"8X c #517D8B",
"9X c #107FF3",
"0X c #2A7FC0",
"qX c #378AAC",
"wX c #2C82BE",
"eX c #3591B7",
"rX c #378EB2",
"tX c #3E869C",
"yX c #50888D",
"uX c #428CB2",
"iX c #2C84C4",
"pX c #2E8AC4",
"aX c #2D8ACA",
"sX c #258ACE",
"dX c #318BC5",
"fX c #3387C6",
"gX c #2C93CA",
"hX c #3194C5",
"jX c #3194C9",
"kX c #278DD6",
"lX c #328DD6",
"zX c #2696D9",
"xX c #1A8DE7",
"cX c #1894E9",
"vX c #0F82F3",
"bX c #0F88F3",
"nX c #0D8EFB",
"mX c #1185F4",
"MX c #128CF6",
"NX c #138EF8",
"BX c #1F8FF1",
"VX c #0D98F5",
"CX c #1494F6",
"ZX c #149AF6",
"AX c #1492F9",
"SX c #1599F8",
"DX c #1A98F6",
"FX c #0F90EE",
"GX c #2694E7",
"HX c #238EF1",
"JX c #16A0F9",
"KX c #DDAC8A",
"LX c #FFD4A6",
"PX c #FFF1C5",
/* pixels */
"CXCXCXCXCXCXCXcXCXZXVXCXZXcXCXZXVXJXcXDXZXZXSXAXCXVXZXFXGXHXcXVXcXcXBXHXDXBXSXNXAXAXnXAXCXFXAXAXNXNXMXnXMXMXMXMXNXMXMXMXMXMXbXbX",
"CXCXCXCXCXDXCXZXCXCXZXCXVXVXZXVXVXJXVXVXSXcXzXgXjXeXeXrXuXuXqXeXrXrXuXrXqXeXdXaXsXGXCXSXFXMXNXNXNXNXMXCXnXNXMXMXAXMXMXMXmXbXMXbX",
"CXCXCXDXCXZXCXZXZXZXcXZXcXVXZXVXJXVXJXSXcXzXuXyXE T T `.'.'.`.`.{.{.OX{.'.`.`.E yXqXkXcXFXVXnXNXNXMXMXMXNXMXNXMXMXNXbXMXMXbXbXbX",
"CXCXCXCXCXCXDXCXZXCXZXZXZXZXZXZXVXJXZXcXjXuXE +X4.{ <.V.d.g.7.<.g.I.>Xv.s.V.C.}.T R tXwXcXCXnXSXNXCXVXMXNXAXMXNXNXMXNXMXmXMXbXbX",
"CXCXCXCXCXCXcXZXDXZXZXZXZXZXZXZXJXcXzXuXR T 4.:XU.{ o.h.p.d.p.o.h.N.I.h.9.f.v.8.4.@.T yXiXBXbXnXnXCXCXMXMXAXNXMXMXMXNXMXMXMXbXbX",
"DXCXCXDXCXZXCXZXZXCXZXZXZXZXZXZXZXzXeXyX+X8.v.E.I.o.0.x.d.j.p. .h.N.S.h.f.x.I.v.7.2.+.].8XdXxXFXCXMXMXnXNXMXNXMXMXMXNXMXMXMXbXmX",
"FXCXCXZXCXCXDXCXZXZXZXZXZXZXZXZXJXhXR ].|.A.U.E.I.d.p.V.1.j.1.7.h.S.S.k.p.x.t.q.o.1.6.[.].8XsXVXNXMXMXCXNXAXMXNXNXMXMXMXMXMXMXbX",
"DXCXZXCXZXCXZXZXZXZXSXZXZXSXSXcXGXuXT 4.D.t.b.Y.D.j.&.3.! ! V V ! 2.2.] $.V.H.b.g.| s.6.[.w qXFXCXbXVXMXNXMXNXMXMXNXNXMXmXMXMXbX",
"DXCXCXZXCXZXCXZXZXZXSXZXZXZXZXcXhXyX{.7.I.u.r.U.8.4 * * : : & & : > , : & * ~ k.o...<.>.7.].q sXxXVXMXMXNXNXNXMXMXNXNXmXMXbXbXMX",
"CXZXCXCXCXCXZXCXZXZXZXZXSXSXJXzXqXE 8.r.L.r.I.g.4 * ; - * & < < < 1 1 * - - > 6 7.7.>.<.v.4.R tXxXMXMXCXNXNXMXMXMXMXMXMXMXmXbXmX",
"CXCXCXZXZXCXZXZXZXZXSXSXZXZXJXzXyX`.#Xq.K.z.d.4 : & & * 6 5 7 2 5 n H 2 - - > , h -.a.a.f.4.a 8XkXCXMXMXNXNXNXMXMXNXMXMXMXbXbXbX",
"CXZXCXCXZXDXZXZXDXZXZXZXJXZXJXjXd  XC.w.N.H.$.4 > < 5 n ~ +.J J J 3.4.J H G G , , 6.s.>.x.|.].f sXMXnXCXNXNXNXNXMXNXNXMXMXMXbXMX",
"ZXCXZXCXSXSXCXZXZXZXZXJXZXZXJXhXy oX:Xn.K.v.h 2 2 2 v ! S *.L J #.2.-.P J J J h v S <.9.M.C.].f aXAXNXnXNXNXNXNXMXMXNXMXbXbXbXMX",
"CXCXZXCXZXSXZXCXZXZXZXZXZXZXZXhXE |.F.q.B.k.5 G G v A N S *.J b C :.p.D b J *.J m m <...x.V.[.i aXAXnXCXNXAXNXNXMXNXMXMXMXmXbXbX",
"CXCXCXZXSXSXZXZXZXZXZXZXVXJXZXhXa |.E.u.y.g.4 G v A B *.%.&.C ~ ] 2.p.` M L *.D ! x 7. .x.$X Xi aXCXMXCXNXNXNXNXMXNXMXMXMXbXMXbX",
"ZXCXCXZXSXSXSXZXSXZXZXJXZXZXJXhXp #XA.w.I.v.4 G B b b S S %.N Z ~ :.:.( M P -.` ~ k 1.d.f.@X[.y aXMXCXMXNXNXNXNXbXNXNXNXbXmXMXbX",
"CXZXCXCXZXZXZXZXZXZXZXZXZXZXZXhXE #XU.e.m.H.I n B m B *.#.` D D _ =.>.` C L =.` D z >.9.h.$X Xy aXCXNXNXCXMXMXCXMXMXMXMXmXmXMXMX",
"CXCXZXCXZXZXZXCXZXZXZXZXJXZXJXhXE oXS.r.J.A.I H Z Z m L ` %.S C S -.>.( S S 2.` D z 1.9.q.$X.Xd aXMXCXMXMXMXMXMXMXMXMXMXMXMXmXmX",
"ZXZXCXCXCXZXZXZXZXZXZXZXZXZXJXjXw %XF.q.J.S.h B C C B L ` =.S C #.%.>.F D D :.' ( D a.>.f.D. Xy aXBXNXNXCXMXCXMXMXMXNXMXMXMXmXMX",
"CXCXCXZXCXCXZXCXZXZXZXZXZXZXZXgXa %XD.q.J.S.A Z +.C b P ` %.#.S S ' p.^ D z >.| _ ( s.p.w.D.|.u aXNXCXMXMXMXMXMXMXCXMXMXmXmXmXFX",
"CXZXZXCXCXCXZXZXZXZXZXZXZXZXZXhXa %XD.e.J.K.k Z +.S m S ) [ ` C L %.1.) ( D :.:.] D s.<.p.F.|.e pXCXBXMXMXMXMXMXNXMXNXMXMXMXbXbX",
"CXCXCXCXZXCXVXZXZXZXZXZXZXZXZXhXr %XD.w.J.E.k C _ C M ` ) [ ` C C %.>.) S N :.2.] _ a.9.w.D.|.e dXNXNXCXCXMXMXMXMXMXNXMXbXbXbXMX",
"CXCXZXCXCXCXCXSXSXSXZXZXZXZXZXjXr oXD.w.y.E.k V ! _ M ` ) [ #.S F ' >.[ D N :.>.) ( j.p.q.D. Xy aXCXMXMXNXMXMXCXMXMXMXMXMXMXbXMX",
"CXCXDXCXCXZXCXSXSXZXZXZXZXZXZXhXr oXS.w.J.K.l C ! _ M ` ] :.*.S N ' <.[ S Z =.>.' ) j.9.e.D. Xy aXMXNXMXNXMXMXMXMXNXMXMXbXbXmXbX",
"CXCXCXCXDXCXDXDXZXSXSXSXDXZXSXhXw oXI.r.J.G.M J L ! M ( ( >.` N N &.1.:.L C -.>.) ) a.0.z.G.[.d aXCXNXNXAXMXNXMXAXNXMXNXMXMXbXmX",
"CXDXCXCXCXDXCXCXCXSXSXDXZXZXZXhXw |.I.i.J.K.b Z ] ) k ^ X...^ z ^ | ....F k | <.} X.l.f.x.C. Xd dXNXNXNXnXNXMXNXNXMXMXMXMXmXbXbX",
"CXDXCXDXCXCXDXCXCXSXSXSXSXSXCXjXw |.U.0.N.>XA x 0.Q.Q.Q.^.~.^.^.W.1X2X1XQ.Q.Q.B.X.^ l.f.f.C.XXt aXNXAXNXMXMXMXMXMXMXNXMXNXmXbXMX",
"CXCXCXCXCXCXCXCXCXCXCXCXCXCXZXjXr OX$X0.H.K.j  .3X2XR.!.)./.!.^.R.!./.).!.^.2X1Xw./ 0.f.z.C.XXt aXNXNXNXMXMXMXnXMXMXMXMXnXNXbXmX",
"CXNXCXCXCXCXCXCXCXDXCXCXZXCXSXdXw OX-Xa.F.$X[ 6X2X!._.~.(.2X1X^.R.!././.!.R.!.2X1Xw.7.f.x.C. Xd aXNXNXNXNXbXNXNXMXNXmXnXmXmXmXmX",
"MXCXNXCXCXCXCXCXCXCXZXCXCXZXSXdXi  X-X5X5X5X4X<X,XT.L.L.P.R.T.I.L.Y.R.T.Y.L.Y.Q.^.B.h.q.z.C.XXt aXNXNXMXNXNXNXbXMXmXNXNXmXnXnXmX",
"CXMXCXCXCXCXCXCXCXCXCXCXCXCXZXjXd +X=XLXPXLXKXU 5.j.p.h.t.u.w.o.} w.m.m.b./ i.Y.B.t.b.w.e.H.XXt aXNXNXNXNXNXMXmXNXNXNXmXmXmXmXmX",
"CXCXCXBXCXCXCXCXCXCXCXZXZXCXCXjXf s U KXKXU Y U 3 3.1.a.r.B.c. .| Z.A.c.k.o.w.U.I.b.z.e.t.Z. Xt aXNXNXMXNXbXNXmXnXNXMXnXbXnXmXbX",
"CXMXCXCXCXAXAXCXAXCXCXAXCXSXSXlXg % 8 @ @ @ @ 8 @ 3 5.d.r.m.g. .,.V.A.z.h...0.I.B.m.e.z.z.Z..Xi fXNXNXMXMXMXMXMXmXmXmXbXmXMXmXmX",
"MXCXCXCXAXCXCXCXCXCXSXCXAXAXAXlX0 + @ @ @ @ @ @ O O s. .r.I.k.,.,.k.M.h.g...0.U.B.B.t.e.z.V. Xy iXNXNXMXMXMXMXMXMXMXBXmXmXmXmXmX",
"CXCXCXCXCXCXCXAXAXCXAXCXCXCXAXlX9 X + @ @ + # X X O 3.7.w.B.k.,. .l.B.z.h...0.Y.B.B.e.q.z.C.XXt aXNXNXMXMXMXMXMXmXmXMXmXmXMXMXmX",
"CXVXCXCXCXAXCXAXCXCXCXCXCXAXCXlX8X  X + + + + . . $ +.,.g.B.l. ...0.z.e.0... .S.M.M.b.b.x.C. Xi aXNXMXMXMXMXMXMXmXMXmXmXmXmXmXmX",
"CXCXCXbXCXCXCXCXCXCXCXCXCXCXAXkX0 o   . . .   . X G $. .o.N.Z.<. .0.c.h.g.| 7.F.A.c.c.w.h.#X Xd aXMXMXMXMXMXmXmXNXmXmXmXmXmXmXBX",
"nXCXCXCXCXVXCXAXMXCXCXCXCXCXCXaXq p o . .       < K +.+.| V.5.&.;.;.7.,.4.$.;.V.g.h.B.b.z.@X Xt aXMXMXmXMXmXmXmXmXNXmXmXmXMXmXmX",
"CXCXbXCXMXAXCXAXNXCXNXAXCXAXAXgXi ].K 2 # # # o = # ; & : 2 < & = * 2 > * $ & , , z l.b.b.A. Xy iXMXMXMXMXbXMXMXmXNXNXmXmXmXmXmX",
"MXCXbXCXCXMXMXNXCXMXCXAXAXAXAXpXu [.L v K K - - = = = = < < - = = = 1 < = = = > V ;.k.b.n.F.|.u iXMXMXMXmXbXmXmXNXmXmXmXmXmXmXmX",
"MXMXCXMXCXCXAXCXCXAXMXMXAXAXAXpXu  X@XS Z 3.1 7 - - & * : > & & * * 1 > < & : c $.' h.b.n.G..Xy iXMXMXMXMXmXmXMXmXmXmXmXmXmXmXmX",
"MXCXMXnXMXCXAXMXMXCXAXCXMXCXCXpXe *X@Xp.:.5.5 7 K H 7 H +.+.+.H H +.$.+.H c c 3.;.{ h.t.n.S.|.y fXMXmXMXmXMXmXmXNXmXmXmXmXmXmXmX",
"VXMXVXCXMXCXAXMXAXAXCXNXCXAXMXhXe |.G.9.| 8.5 5 n +.V ! ~ &.*.Z V #.,.$.S B B *.=.[ z.t.y.G.|.u iXNXmXmXNXmXnXmXmXmXNXmXmXmXmXmX",
"NXMXAXNXAXMXCXnXMXAXMXCXNXMXnXpXe XXG.i./ V.h c V +.+.] ] =.*.Z N ` 1.{ D m C *.=.[ z.t.m.F..Xy fXMXNXMXmXmXbXmXmXmXBX9XmXmXmXmX",
"MXBXCXMXMXNXMXCXBXMXCXNXCXMXNXaXp *XK.e./ j.h v V #.#.$.` =.' Z S P >.[ D m M -.:.| b.b.m.F.OXy iXmXMXmXbXmXbXmXmXnXmXmXNXmXmXmX",
"MXMXMXMXCXMXNXMXNXCXNXNXNXNXNXdXy *XH.e.i.j.h v ~ $._ $.' %.%.N J P >.>.` l Z %.-.| h.b.m.F.OXu iXMXMXmXmXmXmXbXmXmXmXmXmXmXmXmX",
"CXMXCXMXMXCXNXNXMXNXNXNXBXMXNXdXa oXK.9.9.V.I v N ;.] ` ` %.%.Z C S >. .( l m $.:.:.h.b.N.F.OXu iXNXmXmXmXmXmXmXmXmXmXmXmX9XmXmX",
"MXMXMXMXMXMXMXMXNXNXCXNXNXCXNXfXa XXG.f...V.v v Z $.] %.%.=.&.C J _ <.| ^ l M $.=.| g.b.m.D.OXy iXmXMXmXmXmXmXmXmXmXmXmXmXmXmXmX",
"MXMXMXMXMXCXMXFXNXMXNXCXMXNXMXdXe %X$Xh...l.v c J +.$.` &.&.*.C C #.,...( l M *.:.| k.c.I.U.oXu iXmXmXmXmXmXmXmXmXmXmXmXmXmX9XmX",
"CXMXMXMXMXMXMXMXMXMXMXMXNXNXMXdXy oXD.q./ V.4 v m $.$.#.' &.%.C C D | | ' l b 6.:.| c.r.y.U.oXy 0XbXmXmXmXmXmXmXmXmXmXmX9XmXmXmX",
"MXMXCXMXMXMXMXMXMXMXMXBXCXMXMXdXa *XF.z.9.a.h c ! $.] _ ' :.! ~ N D a.:.( l b 6.=.| c.r.m.U.%Xy wXmXmXMXmXmXmXmXmXmXFXmXmXmX9X9X",
"MXMXFXMXMXFXMXCXCXMXMXFXMXMXCXwXp %XU.z.9.s.I v m %.] ( ] ;.{ Q D S 1.| ` Z b S =.| h.t.I.U.&Xy fXmXmXmXmXmXmXmXmXmXmXmX9X9XmXmX",
"MXMXMXMXMXCXMXMXCXMXbXCXMXMXFXfXw %XK.z.p.s.v c ! ;.~ ] ;.;.$.Q S D 2.1.] m B 6.=.| x.z.m.>X%Xy wXmXmXmXmXmXmXvXvXmXmXmXmX9XmX9X",
"FXMXMXMXMXMXMXMXbXMXMXMXMXMXCXwXp &XU.z.p.s.5 h j X.^ Q { / X.Q z )  ...Q j z ` [ [ h.b.I.>X&Xy 7XbXmXmXmXmXbXmXmXvXmX9X9XmX9XmX",
"mXMXMXCXbXnXMXMXMXMXMXMXMXMXMXdXp %XK.t.p.a.h h X.W.W.I.W.W.^.I.I.W.Q.T.T.I.c.} } X.h.c.m.>X&Xr wXmXmXmXmXvXvXvXmXmXvXmX9XmXmX9X",
"MXMXbXbXbXCXMXMXnXbXMXMXMXMXMXwXr &XU.t.p.a.j j 1X2X2X(.2X2X2X_.^.(././.).T.^.W.O./ c.h.I.>X&Xr wXmXmXmXmXbXbXvXmX9X9XmXvXmXvX9X",
"mXmXmXmXmXMXmXNXmXMXmXbXMXMXMXpXa %XE.z.9.l.F ,X2X2X/.!./.2X2X(.~.~./././.T.^.1X<Xw.r.B.B.>X;Xr wXmXmXmXvXnXmX9X9XmXvXvXvXvXvX9X",
"mXFXMXFXMXmXNXmXbXFXMXmXbXMXMXwXa &XE.J.9.x.H.1X1X).!._.2X(.^.^.Q.^.!.).!.P.E.1X3XI.b.r.t.,X;Xw wXvXvXmXvXvX9XmXmXvXvX9XvXvXvXvX",
"MXmXmXmXmXMXmXNXmXMXFXmXMXmXMXfXp &XK.J.x.9.x.e.Y.P.y.u.I.I.b.r.w.g.r.u.c./ ..q.B.n.B.u.u.>X;Xp wXvXvXbXvXvXmXvX9XvXmXvXvX9XvX9X",
"mXFXmXMXmXmXmXmXmXmXmXmXmXMXMXwXa #XK.t.x.e.n.e.Y.Y.y.u.W.Y.b.h.k.k.M.A.A. . .k.B.N.u.u.y.W.;XE wXvXvXvX9XmXvX9XvX9X9XvXvXvXvXvX",
"mXmXmXmXmXmXmXmXmXmXmXmXmXmXmXwXr #X>XJ.e.b.I.u.L.L.y.y.R.J.t.h.q.g.v.v.k. .| d.N.I.m.y.J.W.4Xa 7XvXvXvXmXvXmXmXvXvX9XmX9X9X9X9X",
"MXmXMXmXmXmXmXNXNXmXmXmXmXMXmXfXy &X>XN.f.z.B.u.I.E.K.J.W.Y.b.h.k.v.M.A.C.<.>.l.Z.I.B.c.b.>X4Xy 7XvXvXvXvXvX9XvX9XvX9X9X9XmX9X9X",
"9XBXmXmXHX9XmXmXmXmX9XmXmXmXmXfXt =X:X$X@X@XG.A.$X$X$X$X>XE.Z.#X8.V.Z.C.V.4.4.V.C.U.D.D.:X:X4Xd 0XxXvXvX9XvXvXvXvXvXmX9X9X9XmX9X",
"mXmXmXmXmXmXmXmXmXmXBXmXmXmXmXiXi @.#.F A M Q k ( M C D ^ Q x j j l x ~ n h 4 j j ~ x j Q +.].f 0XvXvXvXvXvXvXvX9XvX9XmX9X9X9X9X"
};
