/* XPM */
static char *result[] = {
/* columns rows colors chars-per-pixel */
"64 64 87 1 ",
"  c #0E1311",
". c #111112",
"X c #3C150D",
"o c #35180F",
"O c #3B180D",
"+ c #3B190D",
"@ c #3B190E",
"# c #3B180F",
"$ c #3D1710",
"% c #3D1711",
"& c #3E1710",
"* c #3E1711",
"= c #3F1712",
"- c #3B1810",
"; c #401811",
": c #961714",
"> c #981616",
", c #AF1A16",
"< c #AF1A1A",
"1 c #B21917",
"2 c #B01A17",
"3 c #B21A17",
"4 c #B91917",
"5 c #B3161B",
"6 c #B4161B",
"7 c #B4171B",
"8 c #B1191A",
"9 c #B3181A",
"0 c #B3191A",
"q c #CD1E1E",
"w c #C71E20",
"e c #CB1E20",
"r c #CC1E20",
"t c #CC1E21",
"y c #CD1F21",
"u c #CB2020",
"i c #CD2021",
"p c #F39E7C",
"a c #EFA27C",
"s c #EEA37C",
"d c #F2A377",
"f c #F1A279",
"g c #F2A278",
"h c #F1A17A",
"j c #F0A17B",
"k c #F1A17B",
"l c #F1A27A",
"z c #F0A27B",
"x c #2F93C8",
"c c #3393C7",
"v c #3093C8",
"b c #3393C9",
"n c #3393CA",
"m c #3393CB",
"M c #EE9B83",
"N c #F19985",
"B c #F8BD8F",
"V c #F6BE91",
"C c #F8BD90",
"Z c #F8BC92",
"A c #FECCA7",
"S c #FECCA8",
"D c #FECDAA",
"F c #FDCEAA",
"G c #FDCFAA",
"H c #FECEAA",
"J c #FFD0A7",
"K c #FDD1A9",
"L c #FED0A8",
"P c #FCD0AA",
"I c #FDD0AA",
"U c #FCD1AA",
"Y c #D4CFCE",
"T c #EBE6E7",
"R c #E7E7EC",
"E c #E8E7ED",
"W c #E9E7ED",
"Q c #EAE7ED",
"! c #EBE6EE",
"~ c #ECE6EE",
"^ c #ECE6EF",
"/ c #E6E8EC",
"( c #E7E8EC",
") c #EDE8EC",
"_ c #ECE6F0",
"` c #ECE6F1",
"' c white",
/* pixels */
"qqqqqqqqqqqqqqqqYYYYYYYYYYYYYYYYYYYYYYYYYYYYYYYYqqqqqqqqqqqqqqqq",
"qqqqqqqqqqqqqqqqYYYYYYYYYYYYYYYYYYYYYYYYYYYYYYYYqqqqqqqqqqqqqqqq",
"qqqqqqqqqqqqqqqqYYYYYYYYYYYYYYYYYYYYYYYYYYYYYYYYqqqqqqqqqqqqqqqq",
"qqqqqqqqqqqqqqqqYYYYYYYYYYYYYYYYYYYYYYYYYYYYYYYYqqqqqqqqqqqqqqqq",
"qqqqqqqqqqqqqqqqYYYYYYYYYYYYYYYYYYYYYYYYYYYYYYYYqqqqqqqqqqqqqqqq",
"qqqqqqqqqqqqqqqqYYYYYYYYYYYYYYYYYYYYYYYYYYYYYYYYqqqqqqqqqqqqqqqq",
"qqqqqqqqqqqqqqqqYYYYYYYYYYYYYYYYYYYYYYYYYYYYYYYYqqqqqqqqqqqqqqqq",
"qqqqqqqqqqqqqqqqYYYYYYYYYYYYYYYYYYYYYYYYYYYYYYYYttqqqqqrqqqqqqqq",
"::::::::007<7805<,2,3233rqqqqqqqqqqqqqqe1111111133333333:>>>>>>>",
"::::::::4697669060000006qqqqqqqqqqqqqqqy6666666600000003>>>>>>>>",
"::::::::4676670060000006qqqqqqqqqqqqqqqt6666666600000003>>>>>>>>",
"::::::::4670077060000006qqqqqqqqqqqqqqqw6666666600000003>>>>>>>>",
"::::::::4670000000000006qqqqqqqqqqqqqqqw6666666600000003>>>>>>>>",
"::::::::4609790700000006qqqqqqqqqqqqqqqu6666666600000003>>>>>>>>",
"::::::::4690000000000006qqqqqqqqqqqqqqqi6666666600000003>>>>>>>>",
"::::::::4660060090000006qqqqqqqqqqqqqqqt6666666600000003>>>>>>>>",
"pkkkkkkk)/W~!W/~(EQ~R~~~kkkkkkkkkkkkkkkk~~~~~~~~~~~~~~_Tkkkkkkkk",
"kkkkkkkk)~~~~~~~~~~~~~~~kkkkkkkkkkkkkkkk~__~~~^~~~~`~_~)kkkkkkkk",
"kkkkkkkk)~~~~~~~~~~~~~~~kkkkkkkkkkkkkkkk~_^~~~~~^~_``~~)kkkkkkkk",
"kkkkkkkk)~~~~~~~~~~~~~~~kkkkkkkkkkkkkkkk~`~_~^~~`~~`~^~)kkkkkkkk",
"kkkkkkkk)~~~~~~~~~~~~~~~kkkkkkkkkkkkkkkk~~~~~^~~~^^^~^^)kkkkkkkk",
"kkkkkkkk)~~~~~~~~~~~~~~~kkkkkkkkkkkkkkkk~_^^~_~~~~^~^^_)kkkkkkkk",
"kkkkkkkk)~~~~~~~~~~~~~~~kkkkkkkkkkkkkkkk~_^~~_~~~~~~~~~)kkkkkkkk",
"kkkkkkkk~~~~~~~~)))))))~kkkkkkkkkkkkkkkk~~~~~~~~~~~~~~~)gppppppp",
"DDDDDDDD''''''''cccccccvZZZZZZZZZZZZZZZZcmmmmmmn''''''''DDDDDSDD",
"DDDDDDDD''''''''ccccccccZZZZZZZZZZZZZZZZcmmmmmmm''''''''DDDDDDDD",
"DDDDDDDD''''''''cccccccxZZZZZZZZZZZZZZZZcmmmmmmm''''''''DDDDDDDD",
"DDDDDDDD''''''''ccccccccZZZZZZZZZZZZZZZZcmmmmmmc''''''''DDDDDDDD",
"DDDDDDDD''''''''ccccccccZZZZZZZZZZZZZZZZcmmmmmmm''''''''DDDDDDDD",
"DDDDDDDD''''''''ccccccccZZZZZZZZZZZZZZZZcmmmmmmm''''''''DDDDDDDD",
"DDDDDDDA''''''''cccccccxZZZZZZZZZZZZZZZZcmmmmmmc''''''''DDDDDDDD",
"DDDDDDDD''''''''cccccccxZZZZZZZZZZZZZZZZccnmnmbm''''''''DDDDDDDD",
"DDDDDDDD''''''''........UUUUULLUUULUKUUJ .......''''''''DDDDDDDD",
"DDDDDDDD''''''''........UDDGDDUUDUUDDGUG........''''''''DDDDDDDD",
"DDDDDDDD''''''''........DDDFDDDDFGPDDHGI........''''''''DDDDDDDD",
"DDDDDDDD''''''''........DDDUDDUDPDGDDGDD........''''''''DDDDDDDD",
"DDDDDDDD''''''''........DDUDDGDPHDGDUUUP........''''''''DDDDDDDD",
"DDDDDDDA''''''''........DDGFDFUGGUDDFGUP........''''''''DDDDDDDD",
"DDDDDDDD''''''''........DDGDDGDDDDFUUDDD........''''''''DDDDDDDD",
"DDDDDDDS''''''''........HDDDDIUDDDUUPDDD........''''''''DDDDDDDD",
"VVVVVVVV-======*X+++++&;NMMMMMMMMMMMMMMM#@@+-++++O+++++$BBBBBBBB",
"ZZZZZZZZ+++++++++++++++*NNNNNNNNNNNNNNNN+--------------oBBBBBBBB",
"ZZZZZZZZ+++++++++++++++*NNNNNNNNNNNNNNNN+--------------+BBBBBBBB",
"ZZZZZZZZ+++++++++++++++*NNNNNNNNNNNNNNNN+--------------+BBBBBBBB",
"ZZZZZZZZ+++++++++++++++*NNNNNNNNNNNNNNNN+--------------+BBBBBBBB",
"ZZZZZZZZ+++++++++++++++*NNNNNNNNNNNNNNNN+--------------+BBBBBBBB",
"ZZZZZZZZ+++++++++++++++*NNNNNNNNNNNNNNNN+--------------oBBBBBBBB",
"ZZZZZZZZ+++++++++++++++*NNNNNNNNNNNNNNNN$--------------+BBBBBBBB",
"kazkkakkZZZZZZZZ+++++++++++++++++++++++++++++++#VZZZZZZZkddddkhd",
"kkzzkkjkCZZZZZZZ++++++++++++++++++++++++++++++++ZZZZZZZZgfdgkkhk",
"kkkkkjkkZZZZZZZZ++++++++++++++++++++++++++++++++ZZZZZZZZfkgkghhh",
"kzkkkkkkZZZZZZZZ++++++++++++++++++++++++++++++++ZZZZZZZZddfdhkfg",
"kkkkkkzkZZZZZZZZ++++++++++++++++++++++++++++++++ZZZZZZZZdkgddkfd",
"kkzkzkkkZZZZZZZZ++++++++++++++++++++++++++++++++ZZZZZZZZlkffdfdd",
"kzkkzzkkZZZZZZZZ++++++++++++++++++++++++++++++++ZZZZZZZZfkgkkkdd",
"kkkkkkkkZZZZZZZZ++++++++----------------%-#+--+-ZZZZZZZZkhkkhkhk",
"kkakskkkkkkkkkkkZZZZZZZZADAAAAAAAAAAAAAABVVVVVVVkkkkkkkkkkkkkkkk",
"kkkkakkkkkkkkkkkZZZZZZZZDDDDDDDDDDDDDDDABVVVVVVVkkkkkkkkkkkkkkkk",
"kkzkkkkkkkkkkkkkZZZZZZZZDDDDDDDDDDDDDDDABVVVVVVVkkkkkkkkkkkkkkkk",
"kkkkkkkkkkkkkkkkZZZZZZZZDDDDDDDDDDDDDDDABVVVVVVVkkkkkkkkkkkkkkkk",
"akkkkkkakkkkkkkkZZZZZZZZDDDDDDDDDDDDDDDABVVVVVVVkkkkkkkkkkkkkkkk",
"kkkkkkkzkkkkkkkkZZZZZZZZDDDDDDDDDDDDDDDABVVVVVVVkkkkkkkkkkkkkkkk",
"kkjkkkjkkkkkkkkkZZZZZZZZDDDDDDDDDDDDDDDABVVVVVVVkkkkkkkkkkkkkkkk",
"kkkkkkkkkkkkkkkkZZZZZZZZSDDDDDDDDDDDDDDAVVVVVVVVkkkkkkkkkkkkkkkk"
};
