/* XPM */
static char *download__2_1739131247[] = {
/* columns rows colors chars-per-pixel */
"64 64 255 2 ",
"   c #043702",
".  c #042F01",
"X  c #2C3A2B",
"o  c #791A0F",
"O  c #79241B",
"+  c #712E30",
"@  c #522E23",
"#  c #084905",
"$  c #124C0C",
"%  c #0C510B",
"&  c #0B5906",
"*  c #13580B",
"=  c #0D5914",
"-  c #125915",
";  c #144E12",
":  c #146A0D",
">  c #176713",
",  c #1B7816",
"<  c #087410",
"1  c #22791A",
"2  c #034B37",
"3  c #04532E",
"4  c #0F6E2F",
"5  c #6E3C4B",
"6  c #00524A",
"7  c #237A51",
"8  c #20724C",
"9  c #2A5479",
"0  c #086971",
"q  c #087645",
"w  c #73434E",
"e  c #69516B",
"r  c #5D5366",
"t  c #8A1A07",
"y  c #8A1A0D",
"u  c #9A2307",
"i  c #972715",
"p  c #842813",
"a  c #B02B0C",
"s  c #8B332A",
"d  c #B53D2D",
"f  c #C63013",
"g  c #D83C19",
"h  c #B64937",
"j  c #9B4A39",
"k  c #E3431D",
"l  c #D24A28",
"z  c #DA4C2A",
"x  c #98524D",
"c  c #956B72",
"v  c #B16E6A",
"b  c #9D635D",
"n  c #D2705E",
"m  c #148F11",
"M  c #258B1C",
"N  c #269819",
"B  c #2AAB16",
"V  c #30B413",
"C  c #148D34",
"Z  c #289426",
"A  c #319C2B",
"S  c #2B922E",
"D  c #1DAA2E",
"F  c #2BA428",
"G  c #32A22A",
"H  c #3AB235",
"J  c #3BB636",
"K  c #2DB42F",
"L  c #1CA615",
"P  c #41B338",
"I  c #40AB39",
"U  c #3BCF29",
"Y  c #44D43D",
"T  c #48CB2D",
"R  c #47CA18",
"E  c #13924D",
"W  c #1EA554",
"Q  c #33B64A",
"!  c #15956F",
"~  c #2FB272",
"^  c #25A16F",
"/  c #6B967C",
"(  c #49B444",
")  c #3CC353",
"_  c #39C85B",
"`  c #3CC750",
"'  c #3CCA63",
"]  c #49C747",
"[  c #4AD344",
"{  c #4CD948",
"}  c #51DA4E",
"|  c #58DB56",
" . c #50C94F",
".. c #5AE65A",
"X. c #50D768",
"o. c #63DC66",
"O. c #63EC64",
"+. c #64E868",
"@. c #64F26A",
"#. c #68F170",
"$. c #60E556",
"%. c #EAAB2E",
"&. c #DD9A21",
"*. c #FCD43E",
"=. c #BAAA53",
"-. c #90A473",
";. c #A9B16E",
":. c #9FA16D",
">. c #CBA951",
",. c #F18777",
"<. c #DBA648",
"1. c #B9D069",
"2. c #F0D750",
"3. c #FEE659",
"4. c #EEEA56",
"5. c #F9D969",
"6. c #FFEB67",
"7. c #FFF776",
"8. c #F6F06E",
"9. c #D0D05C",
"0. c #39659B",
"q. c #1078A6",
"w. c #1D6689",
"e. c #5279AE",
"r. c #687595",
"t. c #127FF4",
"y. c #0E7FF5",
"u. c #8F7E8C",
"i. c #15918E",
"p. c #23999A",
"a. c #308F8F",
"s. c #1EA292",
"d. c #38BB8D",
"f. c #3ABC92",
"g. c #2DA68F",
"h. c #1592A5",
"j. c #1A98A7",
"k. c #1A9AB7",
"l. c #148AA5",
"z. c #2F92B1",
"x. c #38A3B5",
"c. c #27A5AF",
"v. c #1EA3A8",
"b. c #6C928B",
"n. c #40AE8A",
"m. c #76A991",
"M. c #4C91AF",
"N. c #6C94AB",
"B. c #70A7BA",
"V. c #559191",
"C. c #37C482",
"Z. c #6AE596",
"A. c #50CFA0",
"S. c #188CC9",
"D. c #1996C9",
"F. c #1689DA",
"G. c #1895DA",
"H. c #3586CA",
"J. c #2A94C9",
"K. c #3695C7",
"L. c #288BD7",
"P. c #368BD7",
"I. c #2694D7",
"U. c #3393D4",
"Y. c #34ABCF",
"T. c #0E88EB",
"R. c #138BE5",
"E. c #1286ED",
"W. c #148BEB",
"Q. c #188CE9",
"!. c #0C9CEC",
"~. c #0E96EE",
"^. c #1494EE",
"/. c #1A94EC",
"(. c #129AEB",
"). c #1996E6",
"_. c #0E83F4",
"`. c #0F8AF3",
"'. c #0D8EF8",
"]. c #1284F4",
"[. c #128CF6",
"{. c #198EF5",
"}. c #1285FA",
"|. c #138EF9",
" X c #1B8EFB",
".X c #0E94F4",
"XX c #0E9AF3",
"oX c #0D94FA",
"OX c #0D9BFB",
"+X c #1393F5",
"@X c #1A93F4",
"#X c #139AF4",
"$X c #1A9AF4",
"%X c #1494FA",
"&X c #1A93FB",
"*X c #1499FA",
"=X c #1A9AFC",
"-X c #268DE6",
";X c #2595E6",
":X c #2D94EB",
">X c #11A0F7",
",X c #4387C8",
"<X c #5294CF",
"1X c #54A7D4",
"2X c #6FACC7",
"3X c #529DE8",
"4X c #76B1EE",
"5X c #699BD3",
"6X c #57D2C9",
"7X c #72CBF0",
"8X c #68D4DE",
"9X c #8E8E91",
"0X c #B19996",
"qX c #8DAE8D",
"wX c #AFA987",
"eX c #9097A8",
"rX c #B098AA",
"tX c #8DAAB3",
"yX c #ACA9AE",
"uX c #CD9293",
"iX c #FFAC9B",
"pX c #D1A9AE",
"aX c #F4ADA4",
"sX c #BED49F",
"dX c #FDF987",
"fX c #FEFB95",
"gX c #EAF688",
"hX c #DBEDA8",
"jX c #FEFDA7",
"kX c #FEFFB6",
"lX c #EFD6A1",
"zX c #AAB5D1",
"xX c #84AFE3",
"cX c #9DB3E2",
"vX c #C9BBD0",
"bX c #91D6FF",
"nX c #93C8FC",
"mX c #B6CCEF",
"MX c #B8E9FF",
"NX c #BDF7FF",
"BX c #B8C2DD",
"VX c #CBC4D1",
"CX c #F3D4D3",
"ZX c #FCFEC9",
"AX c #FEFED7",
"SX c #D0D6EE",
"DX c #D9E9FC",
"FX c #D8FCFF",
"GX c #CAEDFC",
"HX c #FFFDE7",
"JX c #E7E7F9",
"KX c #E9FAFF",
"LX c #FDFEFD",
"PX c #F8FAFB",
"IX c #F9E8EE",
/* pixels */
"oXoXXX#X@X{. X@X/.$X!.!.!.#X=X+X$X$X&X&X*XOX#X#X@X{./.+X#XOX%X%X%X+X+X#X+X{.+X.X+X~.+X%X[.oX|.|.|.'.'.'.[.[.[.[.[.[.[.[.]._.[._.",
"XXXXXX.X&X X@X@X@X#XXXXXXX.X+X#X#X#X&X*X*X%X.X+X+X$X@X^..XXX%X%X%X+X+X+X+X+X%XoX+X+X|.oX%X|.|.|.|.oX[.[.[.'.|.[.'.%X[.[.[.[.`.`.",
"/.#X%X%X%X%X=X*X+X&X#X*X*X*X@X$X>XOXOX#X*X#XXXOX#X%X+X#X!.^.&X&X X+X%XoX{.%X%X%X|.|.|.oX|.|.|.%X'.+X+X'.[.|.[.|.[.|.[.[.].`.[._.",
"/.@X%X*X%X%XOXXX%X=X&X+X*X&X#X^.XXXXXX#X#X#X#X*XoXoX.XXX^.#X@X X&X+X%X%X+X+X%X|. X X%X[.|.%X+X[.+X[.+X[.|.[.%X[.[.[.[.[.[.[.].`.",
" X X@X#X+X#X!.!.$X=X*XOXOXOX#X#X#X$X#X#X#X#X*X&X%X*XXXXXXX+X@X X%X+X+X+X.XoX%X%X|.%X%X#XQ./.W.^.[.+X+X[.%X|.|.[.[.{.[.[.[.[.`.[.",
" X X#X#X+X#X!.!.+X#X*X>X#X!./.$X/.$X$X#X#X#X&X=X=X#XXXXX*X*X&X%X+X.X^.#X+XoX+X%X X%X.X~.+X^.^.^.+X[.[.'.|.[.[.|.|.[.|.[.[.`.]._.",
"%X&X(.^.+X#X(.(.$X#X*XOXG.I.:XI.;X$X$X#X#X#X%X&XoXOX!.!.OXOX&X&X+X#X+X^./.@X{.%X X{..X.X+X[.+X[.[.[.+X+X|.%X[.[.[.|.|.[.[.`.`.[.",
"%X+X@X#X+X&X(.(.#X#X>X/.K.6XB.M.M.z.x.J.I./.&X&X*XXX!.!.(.)./.-X@X+X#X^.@X{.+X{. X%XOX.XoXoX|.'..X[.'.[.[.[.[.|.[.'.[.[.[.[.].`.",
"&X$X+X*X=X%X#X#X~.$X$XJ.B./ -.=.1.1.;./ M.J.).$X&X#X(.).G.Y.1XU.@X%X+X+X%X.X+X+X%X%XoXOXoX'.%X|.|..X+X'.[.|.|.[.[.|.[.[.}._.`.].",
"#X+X*X%X%X*X+X#X=X/.I.1Xm.;.8.4.4.4.4.1.m.M.J.).=X#X$XI.7XNXNX4XP.P.;X@X%X=X.X+XW.oX'.oXoX%X%X|.%X[.[.[.|.%X[.[.[.[.[.[.[.[.].`.",
"/.+X+X%XOX%X+X#XoX/.K.m.1.8.gXjXjXfX8.2.>.-.M.J./.=X=X:XFXKXKXmXe.e.,XL.].'.=X+X^.@X%X%X+X+X+X[.[.'.[.+X[.%X[.[.`.|.[.[.[.[.`.[.",
"/.#X%X%XOXOX#X#X*X:Xa.qXgXgXkXZXZXkX7.3.7.=.qXM.;X=X%X3XKXLXPXJXe SXDXnXM.P.-X-XQ./.{.|.+XW.~.%X[.+X'.+X|.[.[.[.|.[.[.[.`.`.].`.",
"^.#X%X%XXX#X*X*X#XI.n.sXZXZXHXHXHXZXjX7.3.3.>.wX,X@X/.U.GXLXLXIXv pXIXIXCXc e.-X;X+X{.{.{.@X[.+X+X[..X[.|.|.|.'.[.[.[.[.[.`.].`.",
"#X+X%X%X#X(.+X*X>XJ.b.hXZXAXPXKXLXHXjXdX2.*.5.<.N.Y.;XI.MXKXPXPXaXh z ,.l j r.5XL.Q.=X@X{.@X+X'.[.%X'.+X|.%X[.|.[.[.|.[.[.`.`.[.",
"%X%X%X=X#X$X(.#X#XK./ hXZXAXHXLXLXHXAXjX7.3.%.%.:.V.J.I.1XFXKXPXCXb z k l h x vX,XR.^.&X[.oX.X%X|.+X[.%X X|.|.[.[.[.[.[.[.`.].`.",
"%X%X%X%X=X$X#X>X#XJ.qXhXZXZXAXLXLXHXAXkX8.%.&.&.<.-.K.;XU.nXKXLXIXv l k z CXn x zX<XF.%X%XoX'.+X[.'.+X[.|.|.|.[.[.[.[.[.[.].`.[.",
"%X*XXXXX%X=X#X#X*XJ.b.sXjXkXAXHXAXZXjXdXdX5.&.%.<.:.,X).U.nXGXKXKXpXf g ,.CXiXs + r P.W.'.+X+XQ.+X+X|.[.[.[.+X[.[.[.[.[.[._.[.`.",
"=X%XXX#X%X&X#X#X#XI.M.qXlXfXkXkXkXjXdX8.dX5.%.5.<.wXM.I.P.7XxXDXDXCXh g l iXn u i + e.Q.+X.XW.%X{.|.|.+X[.{.[.[.+X[.[.[.].[._.[.",
" X%X#X(.+X%X#X#X#X).U.M.;.2.4.3.7.3.6.3.*.<.>.=.;.yXN.M.z.z.e.bXGXCXv d f f a a u O 0.L.^.#X|.[.|.+X{.|.[.+X[.[.[.[.[.[.[.[.].`.",
" X%X@X^.#X#X&X+X#X#X#XJ./ ;.=.9.9.9.9.<.>.=.:.r.r.N.2X2X2XM.-X:XMXSXpXs f f a u p @ 0.P.R..X|.'.|.|.+X[.[.+X[.[.[.|.|.[.[.`.`.[.",
" X%XXXXX!.#X+X%XOXOX>X).J.M.M.m.qX-.:.qXe.z.K.H.U.:XI.K.B.tXH.:XxXmXvXb a f i =.0X9X9 e.Q.%X|.|.|.|.|.[.+X[.+X[.[.[.|.]._.].`.].",
"&X%XXX!.XX(.+X=XOXOX>X#X>X).I.K.M.B.B.M.L.#X>X!.=X=X;Xz.tXN.1X<XxXDXBXu.s i x pXyXtXw.H.-X XoX|.|.+X+X[.[.[.[.[.|.|.[.[.[.`.[.`.",
"+X@X(.)..X#X#X*XOXOX@X$X>X(.;X).;XI.U.;X^.OX#X(.XX;XbXN.mXzXDXJXDXzXmXrXO O b 0XeXxX9 ,X-X X@X[.|.+X[.|.[.[.[.[.[.[.[.[.[.`.`.`.",
"^.^.(.(.#X%X#X*XXX=X$X(.#X#X=X#X*X*X/.#X=X=X).;XI.1XMXDXFX9XSXvXSXeXSXrXb O w 0X0XeXw.e.:XE.W.{.{.|.[.{.+X[.|.[.[.|.[.[.[.].`.[.",
"^.#X+X#X+X=X*X%X$X$X$X#XXX*X>X#X%X*X*X$X$X;XP.xXMXMXmXr.JXeXu.yXPXJXVX9Xs o y s s @ 0.L.^.{.].@X|.+X|.{.|.|.|.[.|.[.[.|.].].`.`.",
"#X+X&X%X%X+X%X$X&X@X*XOX#XXX#X*X=X#X+X*X$X:XbXFXFXDXJXVXPXJXPXIXIXVXrXc o y y t t @ e.I.R.^.%X`.{.[.|.|.[.|.`.|.%X[.[.[.[.[._.[.",
" X%X&X%XXX#X+X%X&X&X%X$X*X#X*X#X#X#X*X#X$X:XFXKXPXKXKXPXIXJXSXvXrXv w o i t t y t @ 2 q.D.!..XoX'.|.%X[.[.|.[.|.[.`.|.[.`.}._.[.",
" X X X=XXX~.#X@X%X*X&X+X#X#X%X%X#X#X#X#X#X;XMXGXDXDXDXVXvXvXu.rX+ + + s i y p O @ X 2 6 w.D.XX'.|.|.|.[.[.'.'.[.[.[.[.[.[.`.}.[.",
"+X+X%X%X+X+X+X$X#X#X#X#X^.#X+X*X#X#X#X>X(.I.4XmXmXcXzXrXuXv s i + 0XpXpXuXp s 5 N.z.0 6 6 l.F.+X%X|.[.|.|.[.[.[.[.[.[.}.[.[.[._.",
"^.+X+X%X+X%X&X+X#X^.(.#X(.^.#X*X+X+XXXXXXX).P.3X4XxX5XeX5 O i i h aXvXVXpX5 5 r.H.).k.0 2 0 I.].[.[.%X[.|.[.[.[.[.[.[.[.}._.[._.",
"/.^.~.~.%X%X%X@X+X+X+X#X#X+X&X%X*X*X.X.X.X=X/.-X-XH.L.3XmXc s f i uXuXuX5 r e.t.Q./.;Xq.3 6 S.+X[.%X[.[.[.'.[.[.'.'.[.}.[._._._.",
"{.+X~.~.+X%X@X+X{.%X%X+X+X+X%X&X%X%X*X=XoX%X$X^.{.@X;X-XH.e.e w w w e r e.M.t.)..XQ.-Xq.3 3 J.W.{.[.|.|.[.[.[.[.|.}.[.[._.[.[._.",
"+X+X#X+X%X%X%X+X+X%X%X+X+X%X$X%X%X%X%X%X.X+X+X%X%X&X+X).;XI.H.P.,X,XH.H.P.-XQ.%X&XQ.J.0 6 0 D.Q.[.{.[.|.|.`.`.'.[.`.].R.W.E.}.}.",
"+X+X+X+X+X+X+X+X%X+X+X%X+X+X%X+X%X%X%X=X^.#X%X X|.%X/.(.G.G./.XX{.{.+X#X|.|.'..XQ.F.w.6 6 w.I.G./.].[.`.'.|.`.`.].[.].W.W.E.}.}.",
"%X+X+X+X+X%X+X%X+X+X%X$X%X+X%X%X$X@X%X+X.X^.oX%X%X^.G.k.k.D.D.G.Q.^.~.XX'. X&X-Xk.! 3 3 0 k.J.D.F.R.{.[.[. X`.[.[.[.}.].[.W.].].",
"+X+X%X+X+X+X+X%X%X+X+X+X%X+X+X+X+X{.+X+X#XXX%XoX).D.v.s.g.d.f.c.v.k.D.G.+X{.).l.3 = < m ^ g.s.p.i.h.k.D.R.R.].{.].}.}.].].].].].",
"[.+X+X+X+X+X%X%X+X+X+X%X%X+X%X+X+X+X+X+X%X+X+XG.k.s.W Q K U Y J ] Q ~ p.G.G.i.E C m B { [ Y } ` ] K E ! j.S.Q.].].[.].[.}.}.`.`.",
"+X.X+X'.+X+X+X+X+X+X+X+X+X+X+X+X+X+X+X+X+X{.^.G.l.i.! W D L B V R T Q ^ j.j.W F m L R R R R V B L D C ! i.q.t.}.].].].].}.}._.`.",
"+X|.[.+X[.%X|.+X|.+X%X%X%X+X%X+X+X.X%X+X+X^.[.^.).G.D.k.i.E E C N B L C ! ! W L < F K V L m m C ! ! q.S.R.R.].}.].{.].].}._.`._.",
"%X+X+X[.+X[.+X%X+X|.+X+X+X|.%X+X%XoX%X+X^.^.+X+X'.oXoX!.D.j.v.s.E C C C E E D m C C C S E C E ! l.S.F.E._._.}.}.].].W.].E._.}.[.",
"'.[.[.%X[.%X[.%X'.+X[.[.%X+X%X%XoX%X%X+X+X+X%X+X+X~.%XT.D.D.D.k.p.p.s.s.s.W D m ! c.z.p.j.p.p.h.j.J.F./.{._.}.}.{.E.R.E.E.E.}.}.",
"[.+X+X[.+X+X|.+X%X+X%X+X[.%X[.%X|.|.%XQ.{.[. X|.+X.X|./.Y.c.c.z.p.p.p.p.g.~  ._ A.6X8X7X7X8X6X6X6XY.G.T.].}.}.[.].E.E.Q.E.E.}.y.",
"+X+X[.+X+X|.+X'.+X|.%X%X+X+X%X+XoX|.+X+X%X|.|.|.%X|.].D.g.q 3 3 3 - 4 4 1 S G H  .A.Z.Z.Z.Z.X.X._ C.k.R.W.|._._.].].[.].E.].}.y.",
"'.[.+X'.'.%X+X[.|.+X[.+X|.[.'.[.+X+X{.{.|. X|.%X|.%X{.J.d.> > % $ ; - , M N G P ] | @.#.@.O...Y U _ c.F.T._.[.`.W.].}.}.].].}.}.",
"[.%X[.+X{.%X[.[.[.{.%X[.[.|.{.[.|.{. X X{.%X%XoXoX%X|.J.n.< = $ ; ; > , 1 N A P Y | +.#.@.$...{ Y ' v.R.T.E.]._.}.}.}.}.].E.E.E.",
"{.[.[.[.[.[.[.+X%X{.[.|.+X+X|.|.{.|.|.|.|.{.|.'.'.'.|.G.n.4 = # ; - > : M Z G I P | +.#.@.O.| { U ' v.F.Q.].]._._.}.y.y.].E.E.T.",
"[.[.+X[.[.[.[.{.+X|.[.{.|.{.{..X.X|.|.|.|. X[.+X+X%X XL.n.4 - ; ; * : > , Z A H T o.o.#.@.O...[ Y X.c.R.E.E.].]._._.}.}._._._._.",
"[.+X[.[.[.[.+X[.[.[.%X%X[.|.[.+X'.%X|.|. X|.[.+X{.[.{.U.a.4 - ; ; $ * 1 , S A H  . .o.o.$.$.} ] Q ~ k.T.W.].W._.E.[.}.}.}._._._.",
"[.[.+X[.[.+X[.[.+X[.[.{.[.[.+X|.[.'.+XoX|.{.[.+X[.[.{.Q.q.i.3 . . .     # # & & : 4 , 1 < < < < 4 i.S._.].].].E._.].].y.}.t._._.",
"[.[.[.[.[.[.[.[.[.[.[.+X+X[.{.[.{.+X'.[.[.[.+X[.{.[.].Q.J.z.4         # # # & > , S S S A Z M C ! h.F.y.}.].[.].`.].].].].}._.].",
"[.[.[.[.[.[.[.[.[.^.[.[.[.[.[.+X[.[.'.`.[.[..X'.[.[.+XQ.F.x.8 # #   # # & : , A (  .o.+.o.| [ Q d.j.F.].}.].`.`.].].].]._.].}.y.",
"[.[.+X[.[.+X[.[.[.[.[.[.[.[.[.[.[.[.[.+X[.[.[.[.`.[.+XQ.S.x.7 = % # # & : m A I  .X.+.+...} { ` n.h.F.}.[._._._._.].]._.}.t._.].",
"[.[.[.[.+X|.|.[.|.[.[.|.+X[.[.|.+X[.[.[.[.[.|.[.[.[.`.R.D.x.7 = # # & : , M A H  ...+.@...} { ` n.j.F.}._.}._._._.].].t.y.].t._.",
"`.[.[.[.[.'.[.[.[.'.[.[.[.|.[.[.].[.[.'.[.[.[.[.[.[.`.Q.G.x.7 = % % & : 1 M A H ( | O.+.O.} ` ` f.h.F._._._._._.]._.].].].y.y._.",
"[.[.[.[.[.[.|.[.[.[.[.[.[.[.'.[.].{.[.'.[.[.[.|.'.[.[.^.S.x.7 = ; % & : 1 M A (  .o.+.+...} { ) f.j.G._._.[._.`._.].].t.y.].].y.",
"`.'.`.[.`.[.'.[.`.`.[.'.[.[.[.[.{.].[.[.].[.[.[.[.[.[.R.S.x.7 = % % - > 1 Z A J ] | @.+...} [ _ f.h.F._.}._._._._.].t.}.t.t.].y.",
"`.`.`._.`.`.].].[._._.[.`.[.[.[.].[.[.[.].{.|.].}.[.'.R.S.x.E = % % = : M M G H ] | +.O...} Y ` d.h.F._._._._.E._.t.t.t.].t._.y.",
"[._.[.`.[.`.{.[.`.[.[.`.[.].[.[.[.Q.[._.].[.[.].].[.`.R.S.x.7 = % % * : , M G H Y ..+.O...{ { ` d.h.F.y.]._._._._._.].t.t.t.y._.",
"].[.].[.].[.[.}.].[.]._.].|.}.[.].].`.}.[.{.[.|.[.[._.R.S.x.7 = % % & : , M G H ] | O.O...{ Y ` d.h.F.y._._._._.t._.t.t.t.t.y._.",
"].].[.].].].].{.[.].].[.|.].[.].].[._.[.].].].}.[.].].R.S.x.7 - % % & : , M F H ] } O.O...{ Y ` d.h.F._.}._.t._._.t.t.t.y.t.].y.",
"].].].].].].].].].].{.].].].{.].{.W.].].].{.]. X}.[.].R.S.x.8 - % % * : , M G J ] | +.O.$.} ] ) f.h.R._.].y.y.y.t.t.t.t.].y._.y.",
"[.}.].[.].].}.].].].].].].].].].].].[.].].].}.].].}.].T.S.x.7 * % * * : 1 M G H ] | +.+.| } [ ) f.h.F.].].y.].E.t.t.t.t.t.t.y.].",
"].].].].{.].].].].].}.].].].].].].W.].].].].}.}.].].].R.S.x.7 - % % * : , M G H ] | o.O.| | Y ) d.l.F.y._._.t.].].t.t.t.y.t.y.y.",
"].].].].].].].].].].].].].].].{.].].].].{.].].].].].].R.S.x.7 * % % & : , M F H ] | $.O...{ Y ) f.l.F.y.t._.t.t.t.t.t.t.}.t.y.y."
};
