/* XPM */
static char *b2414d186bf247e8cbc8514e2b609315MnZ0ZFfNk4qjXrwZ[] = {
/* columns rows colors chars-per-pixel */
"64 64 173 2 ",
"   c #643E1B",
".  c #7C4D1F",
"X  c #644322",
"o  c #684527",
"O  c #7A4C20",
"+  c #7B5026",
"@  c #7C572B",
"#  c #724D30",
"$  c #7B5A37",
"%  c #79573D",
"&  c #775A3C",
"*  c #7B5B3E",
"=  c #7E603E",
"-  c #725C46",
";  c #7D5C43",
":  c #7E6144",
">  c #77624A",
",  c #7D6049",
"<  c #805125",
"1  c #85552A",
"2  c #8A592F",
"3  c #855E32",
"4  c #8E5D33",
"5  c #825E3D",
"6  c #8F6032",
"7  c #81623F",
"8  c #8C623B",
"9  c #926436",
"0  c #95653A",
"q  c #98673F",
"w  c #96693B",
"e  c #996A3D",
"r  c #825E42",
"t  c #825F4A",
"y  c #836144",
"u  c #8A6444",
"i  c #8F6844",
"p  c #826249",
"a  c #8A6549",
"s  c #8E6A4B",
"d  c #906F44",
"f  c #9C6D41",
"g  c #926B4C",
"h  c #986D48",
"j  c #96764E",
"k  c #9B724B",
"l  c #916D51",
"z  c #947253",
"x  c #9A7352",
"c  c #9E7B56",
"v  c #947459",
"b  c #9B795B",
"n  c #A06C45",
"m  c #A47446",
"M  c #A5754A",
"N  c #A8744B",
"B  c #A6794B",
"V  c #AB7C4E",
"C  c #A47B54",
"Z  c #AE7E51",
"A  c #A67F5F",
"S  c #B07E53",
"D  c #9F855D",
"F  c #AE804E",
"G  c #B0804F",
"H  c #AE8153",
"J  c #A68159",
"K  c #AF8359",
"L  c #AF895E",
"P  c #B28355",
"I  c #B68957",
"U  c #B98A57",
"Y  c #B58659",
"T  c #BA875C",
"R  c #B68A5B",
"E  c #B98A5C",
"W  c #B7935F",
"Q  c #B9915C",
"!  c #9F8063",
"~  c #A78466",
"^  c #AB8668",
"/  c #A98968",
"(  c #B08762",
")  c #B58C62",
"_  c #BA8D62",
"`  c #B48E6C",
"'  c #B39164",
"]  c #BC9265",
"[  c #B7956A",
"{  c #BE966B",
"}  c #BD9A6C",
"|  c #A99379",
" . c #B69576",
".. c #BF9A71",
"X. c #B8987C",
"o. c #C19465",
"O. c #C1966C",
"+. c #C29A6D",
"@. c #C99A6D",
"#. c #C39C72",
"$. c #CA9C72",
"%. c #C39E7B",
"&. c #C5A06F",
"*. c #C8A06E",
"=. c #C5A375",
"-. c #CAA373",
";. c #CEAD76",
":. c #C6A57C",
">. c #CAA57B",
",. c #C6A87C",
"<. c #CBAA7B",
"1. c #D1AC77",
"2. c #D1A67B",
"3. c #D2AB7E",
"4. c #D4B17B",
"5. c #D9B17B",
"6. c #C7A780",
"7. c #CBA583",
"8. c #C7A983",
"9. c #CCAA82",
"0. c #D1AD83",
"q. c #D2AD8B",
"w. c #CFB184",
"e. c #CDB58D",
"r. c #D4B385",
"t. c #DAB585",
"y. c #D6B987",
"u. c #DCBB84",
"i. c #D1B38C",
"p. c #D9B28D",
"a. c #D6B88F",
"s. c #DEBD8C",
"d. c #DEBD92",
"f. c #DCBD9A",
"g. c #E0BE8D",
"h. c #E1BF92",
"j. c #DEC28B",
"k. c #DDC392",
"l. c #DEC199",
"z. c #E2C387",
"x. c #E0C486",
"c. c #E1C389",
"v. c #E2C18A",
"b. c #E4C289",
"n. c #E2C28C",
"m. c #E7C28C",
"M. c #E2C58D",
"N. c #E3C191",
"B. c #E4C493",
"V. c #E4C394",
"C. c #E3C595",
"Z. c #E5C795",
"A. c #E9C191",
"S. c #E9C997",
"D. c #E8CD95",
"F. c #E4C69C",
"G. c #E5C69D",
"H. c #E2C99B",
"J. c #E6CB9B",
"K. c #E6CB9F",
"L. c #E8CE9B",
"P. c #E9CF9E",
"I. c #ECD19D",
"U. c #E5CAA1",
"Y. c #E7CCA0",
"T. c #ECCEA3",
"R. c #ECD2A1",
"E. c #EDD1A2",
"W. c #EDD4AB",
"Q. c #EFD1AC",
"!. c #F1E7CF",
"~. c #F3EBD0",
"^. c #FBF7E5",
/* pixels */
"g.D.u.M.4.;.;.;.;.;.1.4.b.u.;.;.;.m.e./ E.k.P.C.j.j.j.;.y.M.j.n.v.v.v.v.v.v.v.n.n.!.D L.j.z.x.v.v.z.v.v.n.z.n.u.;.1.Z.k.I.v.v.v.",
"U R R $.} g.d.J.,.R R R +.] ] R R { q.>.p i.r.=.+.@.-.-.1.3.k.G.G.K.Y.Z.h.N.N.B.G.E.Q.t 9.R R R R -.3.t.Y Y R R ] R =.;.& 8.O.E ",
"Y Y { Y Y R U >.-.U E R R R R R P Y Y E * ) Z Z Z P Z Z Z _ E E U U U E R R R R R +.>.y R Y Y Y Y Y E E E E R R R R U U % Y R Y ",
"E 9 U Y Y Y U R E E E Y E E E E E E U U r Y E E U U P P Z Y R E E U R E E E E E E E E ; E E E U Y Y U E E E E E E E E U * Y E E ",
"m E E E E E E E E Y Y Y E E E E E E E U r U E E E E E E P E E E E Y Y E E E E E E E R r R E E E E E E E R Y E E E E E U ; U E E ",
"R E E E E E E E E U E U E E E E E E E U r U E E E E E E Y E E E E E R E E E E E E E R r R E E E E E E E E E E E P E E U ; E E E ",
"E E E E E E E E E E E E E U V E E U U U r U _ Z E E E E Y E E E E E E E E E E E Y R E y R E E E E E E E E E E E 2.R E U ; E E E ",
"P Y P P U E E E E E E E E U E P Y I E b , E E E P P Y Y R E E E E E E E E E E E V V V 7 Y R Y P P E E E E E E E E E E E % E E U ",
"U I V U Y E U Y R E E E H P U R l # %.+.r R E R U U U U Y I R P P V E E R I U V V V Y 5 E E U U R E U E R E R R U E E E % E E E ",
"V v.Q Z Z R E E E E E E E U z p.O.H Z N d.M E E V M M M M N N M Z E Z M M M m U E E N u P U M N M m N m Y Y N N M E E m 5 E E U ",
":.:.:.=.-.+.) } :.,.:.6.` Y R E E Y R { ;.E E E U E U U E R R X.Y R E E R Y E 2.+.R E E E R E R ) #.R >.p 0.R R U R R R R U <.>.",
"U R R U U U U U R R R :.~ Y R Y Y Y Y Y E E E E U E E E U E E  .V E Y Y Y Y Y R E E E U U E R k { } } R y Y P P P Z Z Z H _ E E ",
"E E E U E E E E E E U R ! U E U U I R R E E E R E E Y H E R U  .V V Z U E E R U E E E R U E E %.#.#.#.] y E E E R E U Y P Y U E ",
"E Y V P E E E E E E E R b R E H M V V m E E Y P E E E E E E E ^ V V V V E E Y F Z Y Y P E E $.#.#.#.#.@.r R E E E E E E P E U E ",
"E E E R 0 E E E E E E R b U M Z Z V Z Z M E U E E E E E E E E A V V V V H E E E E E E E E #.#.#.#.#.#.@.r U E U E E E E Y E E E ",
"E E E E U R E E E P E R g U E P ] E Z Z Z Z E E E E Y E E E E x S V V V Z E E E E E E E ] #.+.#.#.#.#._ t R R H E E E U P E E E ",
"E E E E U _ E E V V V R s U R P Y P E E U Z H o.U E U U U E E j g V B V m V Y E E E R ..#.#.#.{ +.#...8 p H E Y P P Y Y Y E E E ",
"E R U E E 0 U E V V V N u U E U E E U U E U U U E R E E E U M g O.` X x M V U E E E E +.$.+.#.#.#.K _ I t R E m E E E E U U U U ",
"M P C M M + M N Z U M M 5 M E N N M M M m m Z M M M m m R B M i M q N _ g S V R R I R R R Y Y R R R R R ' M E T M M M M M m M M ",
"U U E R R E R =. .#.E U R R E R R 3.,.:.:.,.:.:.} ' #.=.,.<.9.v H P H Z Z R @.H P P P H P H R R ~ Y Y R E Y P Y R R ,.) $.U U U ",
"E E P P P P P E %.P P P P Z Z Z V _ R U U U U E U E U U U _ ,.p Z Z Z Z Z Z H P P P P P Y B E U b Y U Y Y R Y Y Y Y E =.E E E E ",
"E E E E E R E U %.E E E U E E P Z Y E E E R R E E E E E E E Y y P P P H P P P P P Z P P H f E E z E E E 6 R U U R U U R U R R E ",
"E E E E E E E U ` R E E E E E Y P E E E Y P H U E E E E E E U y P P P P P P P P H V P P E R E U z E E U U E E E E E E E E Y Y E ",
"E E E E E E E U ( V E E E E E P Y E E E E E E P E E E E E E E r P P P P P P P P P P P P P E E U s E E E E E E E E E E E E E E E ",
"E R E U E Y H U J R @.U U U E Y R E E E E E E E R E E U Z E U r P P H H P P P P P P P P P U E U y E E E E E U U E E E E E E E E ",
"U Y E U U K l $ J P E Y Y Y Y P Y E E E E E E E < E E V V V U * H Z V Z Z V P P P P P P e m E U 5 E E Y Y Y P U Y E E E E E E E ",
"E Y ) z [ _ O.M C U U 0 E R E R R R E E E E U U Y E R V V Z m ; P P P E R R R Y P P E R E U E P * E E E E c V E U M B 0 U E E E ",
"Y m ) N 0 0 M M h M T S N M M N M M m M V P M M M M B H _ M M d M E M M M m M m N M M M M V Y m @ R R V n.b.u.V C R R R R Y Y P ",
"Y ) ] 0.R R _ U E E >.) #.:.,.:.:.8.L E U R N R s.Z.=.R R ) ) ) ) ) ] _ : <.<.W +.+.+.-.-.k.l.G.U.H.N.s.v.s.C.T.T.* 9.Y E U R Y ",
"Y Y Y U E E E E E E o.P P P P Z Y 9.Y Y Y V Y Y E R -.U E E E R Y Y Y E ; P H H P Z Z Z R E E E E E U E E U E R ,.y Y U Y Y Y Y ",
"E E E E E E E E Y E R P Y E E Y P >.E E E E R Y Y E Y U U E E E U U U U ; E E E E Y Y H R U E E U E E E E E E _ m p Y U E U U E ",
"E E E E E E Y Y E E E E E E E E P _ E U _ E E E E E E Y Y E E E E E E E ; U E U E E U P E E E E o.Y U E E E E E U a E E E E E E ",
"E E E E E E E E E E E E E E E E P _ E E E E E E E E E E E E E E E E E R r R E E E E U Y w U E E E R @.E E E E E U u U U E E E E ",
"E E E E E E E I U R U R U R E E E _ E E U E E U E E E E E E E P E E Y U r R V E E U E P +.R E E E E E E E E E E U u E R E U E E ",
"Y U U E E E P f M $.>.Y 1 4 E E E R E Y Y P Y U E E E E E E R E Z U ) g r H U P Y P Y R +.+.E E E E E R E E R V Y u Y E Y Y Y Y ",
"E U U U Y V R R R E E E R R O.U H R E E U B Z R E f E E E Y P R b   ` +.r E U M } } +.} +.0 U E E U U E E E P V E u U E E R E E ",
"M M N B 1 M Z H N m M M M V E M M R R E -.s.V V R E U R E U U x { Y n M 5 m Y _ m M M M M 0 M M R M M e M Z R U M 3.M H E M M M ",
"U Y U R T E U ] l >.) E R R E R R K :.:.,.:.,.:.,.] ' } <.w.9.i.q._ _ U R E Y R H >.>.,.,.,.:.R ] =.,.:.8.y 0.Y E U R Y _ =.R R ",
"E E E Y P Y Y U z P P P P Z P P Z e U U U I U U R R E R E E } >.q.0 -.@.S Z Z Z 4 V P P P P P O E U E E >.p R U Y Y Y Y Y R :.E ",
"R E E E E E E U l U E E E E R Y P Y U E E Z R E E E E E E E E { ..+.O.O.] R U P P P P P P Z P $.E E E E U r Y U U E U E R E E E ",
"P E E E E E E U g U E E E E E E P E E E E P B R U E E E E E E U ` { { { { { ] P P P P Z V B P P Y E U U U r E U R E E E E E E U ",
"E E E E E E E U s I E E E E E E U E E E E E E E < E E E E E E I ..{ { { { { O.E P P P P P P Z P . E _ o.U 5 E U E E E E E E E E ",
"E E E E U E H R s U @.E E U E E Y E E E E E E E R R E E P Y E R ..{ O.{ { R R R P P Z P P P P P P E _ E U 5 U U U U E E E E E E ",
"E E U E Y T C X s P U Y P P Y Y Y E E E E E E E R ] E E V V V R ..O._ P P Y Y Y P P Z P R o.O.O.O.O.V V V r U U Y Y V R P U U E ",
"E E E R b 7.) K u U U e E U E E E E E E E E E E E w U R V V Z M [ O.O.E E U E E P P U O.{ +.{ O.O.] V Z E 5 U U E E V E E e w E ",
"R R I i Y 0 0 M u M E E M N N N N M M M m E M M M Z m N T E m N J N _ M M M N M M M M B Y N M C N M E Z N n.R R V n.A.H H R R R ",
":.=.:.,.:.[ ) [ ,.9.i.i.v ) R E E Y &.t.Z V ) <.7.f.i.9.z >.R E U E E R R $.Z.] U R H K O.) +.>.:.:.:.=.r 8._ R R R R Y R P ,.=.",
"E E E E U E E E E E R ,.y Y Y Y Y Y U P H P Z V V Z S H ; Y U P Y Y Y Y Y R E E E E E E P P P P Y P P { p Y P P P H Z Z Z E U E ",
"E R U U E E E E E E E Y y U E E E Y Y E E E U Z Z Z Z Z ; U E P R E E R Y Y E E E E U Y E E E U U P Y U y R E E E E Y Y P R R E ",
"E P B Y E E E E E E E R y U E E E E E E E P Y Y Z Z Z G ; E E E E R U E E E E E E P Y U E E E E U P Y R p U E E E E E E P E E E ",
"E E E E O E E E E E E U y R E E E E E E E E E E R Y Z P * E U E E E E E E E E E E E E E E E E U P P Y R t E R U E E E E Y E E E ",
"E E E E E E E E R H R U r B E U E E E E E E E E U E U H & E E E E R R U E E E E E E E E E E E E P P Y E t R _ P R E E U Y E E E ",
"E E E E U @.E E V V V U ; I m m P U U E E E P E U E E Z = P E P P P P R R E E E E E E E E E E E E P P U t P U Y P P P Y Y E E E ",
"E E E E E 2 U E V V V V ; R R R E E U U U E E E E Y E P 5 E R E E U U U R E E E Y E E E E E E E E Y E B y R R V E E E E E E E E ",
"N E H M N 4 m m P U M M 3 R m R E U R E E U U R E U U R 3 M U E M M M M M M M N m R Y M N M N m Y E M N k M R E M M M N M M m M ",
"R E R $.} V.y.S.,.) Y Y } } [ _ ) } i.8.; i.a.>.*.-.;.<.5.4.G.K.Y.E.T.Z.N.B.N.B.H.E.W.: 8.#.#.#.%.r.r.Z.......[ _ ' :.0.; 9.#.R ",
"Y Y _ Y Y E U >.-.U E E E U U I Y Y Y R ; ) F F H H Z Z Z E R U U U U R R R E E R O.,.y { O.O.O.O.O.#.#.#.#.#.#.#.R U R * Y Y Y ",
"U 4 R Y Y R R E R R E Y E E E E E E R U r Y E E U U H Y Z E U E U E R E E E E E E E E r #.#.) ] ] O.] ) R R R R E S w U ; Y E E ",
"M E E E E E E E E Y Y Y E E E E E E E U r U E E U E E E P E E E E Y Y E E E E E E E E r #.R E E E U E E U P E E E E E U ; E E E ",
"E E E E E E E E E E E E E E E E E E E U r U Y E E E E E R E E E E E E E E E E E E E R y #.E E E E E E E E E E E E E E U ; E E E ",
"E E E E E E E E E E E E E U Z E E U E U r E O.Z E E E E P E E E E E E E E E E E U E E r +.U E E E E E E E E E E E E E E ; E E E ",
"P Y P P U U E E E E E E E U E P R I R x , U E U Y P Y Y Y E E E E E E E E E E E V V Z r @.U P Y Y Y E E E E E E E E E E * E E U ",
"E E V U Y E Y E E E E E H P E R a o :...5 U U E U U E U Y E Y P P Z E E E E E V V V Y * @.U U U U U E E E E E E E E E U % E E U ",
"C ^.| F Z E R R R R R R R R v q.O.K Y M ~.M E ] Z N N N N N N M P R Z M m C M R R R N > S U M M M M M M E R M M M _ U M - R R R "
};
